<?xml version="1.0" encoding="UTF-8" ?>
<svg version="1.1" width="64" height="64" xmlns="http://www.w3.org/2000/svg" shape-rendering="crispEdges">
<rect x="36" y="24" width="1" height="1" fill="#AC3232" />
<rect x="37" y="24" width="1" height="1" fill="#AC3232" />
<rect x="39" y="24" width="1" height="1" fill="#AC3232" />
<rect x="40" y="24" width="1" height="1" fill="#AC3232" />
<rect x="35" y="25" width="1" height="1" fill="#AC3232" />
<rect x="36" y="25" width="1" height="1" fill="#ED7883" />
<rect x="37" y="25" width="1" height="1" fill="#AC3232" />
<rect x="38" y="25" width="1" height="1" fill="#AC3232" />
<rect x="39" y="25" width="1" height="1" fill="#AC3232" />
<rect x="40" y="25" width="1" height="1" fill="#ED7883" />
<rect x="41" y="25" width="1" height="1" fill="#AC3232" />
<rect x="32" y="26" width="1" height="1" fill="#AC3232" />
<rect x="33" y="26" width="1" height="1" fill="#AC3232" />
<rect x="34" y="26" width="1" height="1" fill="#AC3232" />
<rect x="35" y="26" width="1" height="1" fill="#ED7883" />
<rect x="36" y="26" width="1" height="1" fill="#D95763" />
<rect x="37" y="26" width="1" height="1" fill="#AC3232" />
<rect x="38" y="26" width="1" height="1" fill="#ED7883" />
<rect x="39" y="26" width="1" height="1" fill="#ED7883" />
<rect x="40" y="26" width="1" height="1" fill="#D95763" />
<rect x="41" y="26" width="1" height="1" fill="#AC3232" />
<rect x="31" y="27" width="1" height="1" fill="#AC3232" />
<rect x="32" y="27" width="1" height="1" fill="#ED7883" />
<rect x="33" y="27" width="1" height="1" fill="#D95763" />
<rect x="34" y="27" width="1" height="1" fill="#AC3232" />
<rect x="35" y="27" width="1" height="1" fill="#D95763" />
<rect x="36" y="27" width="1" height="1" fill="#D95763" />
<rect x="37" y="27" width="1" height="1" fill="#AC3232" />
<rect x="38" y="27" width="1" height="1" fill="#ED7883" />
<rect x="39" y="27" width="1" height="1" fill="#D95763" />
<rect x="40" y="27" width="1" height="1" fill="#D95763" />
<rect x="41" y="27" width="1" height="1" fill="#AC3232" />
<rect x="43" y="27" width="1" height="1" fill="#AC3232" />
<rect x="44" y="27" width="1" height="1" fill="#AC3232" />
<rect x="14" y="28" width="1" height="1" fill="#AC3232" />
<rect x="31" y="28" width="1" height="1" fill="#AC3232" />
<rect x="32" y="28" width="1" height="1" fill="#D95763" />
<rect x="33" y="28" width="1" height="1" fill="#D95763" />
<rect x="34" y="28" width="1" height="1" fill="#AC3232" />
<rect x="35" y="28" width="1" height="1" fill="#D95763" />
<rect x="36" y="28" width="1" height="1" fill="#D95763" />
<rect x="37" y="28" width="1" height="1" fill="#AC3232" />
<rect x="38" y="28" width="1" height="1" fill="#D95763" />
<rect x="39" y="28" width="1" height="1" fill="#D95763" />
<rect x="40" y="28" width="1" height="1" fill="#D95763" />
<rect x="41" y="28" width="1" height="1" fill="#AC3232" />
<rect x="42" y="28" width="1" height="1" fill="#AC3232" />
<rect x="43" y="28" width="1" height="1" fill="#ED7883" />
<rect x="44" y="28" width="1" height="1" fill="#D95763" />
<rect x="45" y="28" width="1" height="1" fill="#AC3232" />
<rect x="14" y="29" width="1" height="1" fill="#AC3232" />
<rect x="24" y="29" width="1" height="1" fill="#D95763" />
<rect x="25" y="29" width="1" height="1" fill="#D95763" />
<rect x="26" y="29" width="1" height="1" fill="#D95763" />
<rect x="27" y="29" width="1" height="1" fill="#D95763" />
<rect x="28" y="29" width="1" height="1" fill="#D95763" />
<rect x="29" y="29" width="1" height="1" fill="#D95763" />
<rect x="30" y="29" width="1" height="1" fill="#D95763" />
<rect x="31" y="29" width="1" height="1" fill="#D95763" />
<rect x="32" y="29" width="1" height="1" fill="#AC3232" />
<rect x="33" y="29" width="1" height="1" fill="#D95763" />
<rect x="34" y="29" width="1" height="1" fill="#D95763" />
<rect x="35" y="29" width="1" height="1" fill="#AC3232" />
<rect x="36" y="29" width="1" height="1" fill="#D95763" />
<rect x="37" y="29" width="1" height="1" fill="#AC3232" />
<rect x="38" y="29" width="1" height="1" fill="#D95763" />
<rect x="39" y="29" width="1" height="1" fill="#D95763" />
<rect x="40" y="29" width="1" height="1" fill="#AC3232" />
<rect x="41" y="29" width="1" height="1" fill="#ED7883" />
<rect x="42" y="29" width="1" height="1" fill="#ED7883" />
<rect x="43" y="29" width="1" height="1" fill="#D95763" />
<rect x="44" y="29" width="1" height="1" fill="#D95763" />
<rect x="45" y="29" width="1" height="1" fill="#AC3232" />
<rect x="46" y="29" width="1" height="1" fill="#AC3232" />
<rect x="13" y="30" width="1" height="1" fill="#AC3232" />
<rect x="14" y="30" width="1" height="1" fill="#D95763" />
<rect x="15" y="30" width="1" height="1" fill="#AC3232" />
<rect x="17" y="30" width="1" height="1" fill="#D95763" />
<rect x="18" y="30" width="1" height="1" fill="#D95763" />
<rect x="19" y="30" width="1" height="1" fill="#D95763" />
<rect x="20" y="30" width="1" height="1" fill="#D95763" />
<rect x="21" y="30" width="1" height="1" fill="#D95763" />
<rect x="22" y="30" width="1" height="1" fill="#D95763" />
<rect x="23" y="30" width="1" height="1" fill="#D95763" />
<rect x="24" y="30" width="1" height="1" fill="#EDA6AD" />
<rect x="25" y="30" width="1" height="1" fill="#EDA6AD" />
<rect x="26" y="30" width="1" height="1" fill="#EDA6AD" />
<rect x="27" y="30" width="1" height="1" fill="#EDA6AD" />
<rect x="28" y="30" width="1" height="1" fill="#EDA6AD" />
<rect x="29" y="30" width="1" height="1" fill="#EDA6AD" />
<rect x="30" y="30" width="1" height="1" fill="#EDA6AD" />
<rect x="31" y="30" width="1" height="1" fill="#EDA6AD" />
<rect x="32" y="30" width="1" height="1" fill="#AC3232" />
<rect x="33" y="30" width="1" height="1" fill="#D95763" />
<rect x="34" y="30" width="1" height="1" fill="#D95763" />
<rect x="35" y="30" width="1" height="1" fill="#D95763" />
<rect x="36" y="30" width="1" height="1" fill="#AC3232" />
<rect x="37" y="30" width="1" height="1" fill="#AC3232" />
<rect x="38" y="30" width="1" height="1" fill="#D95763" />
<rect x="39" y="30" width="1" height="1" fill="#AC3232" />
<rect x="40" y="30" width="1" height="1" fill="#AC3232" />
<rect x="41" y="30" width="1" height="1" fill="#ED7883" />
<rect x="42" y="30" width="1" height="1" fill="#D95763" />
<rect x="43" y="30" width="1" height="1" fill="#D95763" />
<rect x="44" y="30" width="1" height="1" fill="#D95763" />
<rect x="45" y="30" width="1" height="1" fill="#D95763" />
<rect x="46" y="30" width="1" height="1" fill="#AC3232" />
<rect x="13" y="31" width="1" height="1" fill="#AC3232" />
<rect x="14" y="31" width="1" height="1" fill="#AC3232" />
<rect x="15" y="31" width="1" height="1" fill="#AC3232" />
<rect x="16" y="31" width="1" height="1" fill="#D95763" />
<rect x="17" y="31" width="1" height="1" fill="#EDA6AD" />
<rect x="18" y="31" width="1" height="1" fill="#EDA6AD" />
<rect x="19" y="31" width="1" height="1" fill="#EDA6AD" />
<rect x="20" y="31" width="1" height="1" fill="#EDA6AD" />
<rect x="21" y="31" width="1" height="1" fill="#EDA6AD" />
<rect x="22" y="31" width="1" height="1" fill="#EDA6AD" />
<rect x="23" y="31" width="1" height="1" fill="#EDA6AD" />
<rect x="24" y="31" width="1" height="1" fill="#CD878D" />
<rect x="25" y="31" width="1" height="1" fill="#CD878D" />
<rect x="26" y="31" width="1" height="1" fill="#CD878D" />
<rect x="27" y="31" width="1" height="1" fill="#CD878D" />
<rect x="28" y="31" width="1" height="1" fill="#CD878D" />
<rect x="29" y="31" width="1" height="1" fill="#CD878D" />
<rect x="30" y="31" width="1" height="1" fill="#EDA6AD" />
<rect x="31" y="31" width="1" height="1" fill="#EDA6AD" />
<rect x="32" y="31" width="1" height="1" fill="#AC3232" />
<rect x="33" y="31" width="1" height="1" fill="#D95763" />
<rect x="34" y="31" width="1" height="1" fill="#D95763" />
<rect x="35" y="31" width="1" height="1" fill="#D95763" />
<rect x="36" y="31" width="1" height="1" fill="#AC3232" />
<rect x="37" y="31" width="1" height="1" fill="#D95763" />
<rect x="38" y="31" width="1" height="1" fill="#D95763" />
<rect x="39" y="31" width="1" height="1" fill="#AC3232" />
<rect x="40" y="31" width="1" height="1" fill="#ED7883" />
<rect x="41" y="31" width="1" height="1" fill="#D95763" />
<rect x="42" y="31" width="1" height="1" fill="#D95763" />
<rect x="43" y="31" width="1" height="1" fill="#D95763" />
<rect x="44" y="31" width="1" height="1" fill="#D95763" />
<rect x="45" y="31" width="1" height="1" fill="#AC3232" />
<rect x="46" y="31" width="1" height="1" fill="#AC3232" />
<rect x="12" y="32" width="1" height="1" fill="#D95763" />
<rect x="13" y="32" width="1" height="1" fill="#AC3232" />
<rect x="14" y="32" width="1" height="1" fill="#D95763" />
<rect x="15" y="32" width="1" height="1" fill="#AC3232" />
<rect x="16" y="32" width="1" height="1" fill="#EDA6AD" />
<rect x="17" y="32" width="1" height="1" fill="#ED98A0" />
<rect x="18" y="32" width="1" height="1" fill="#AC3232" />
<rect x="19" y="32" width="1" height="1" fill="#CD878D" />
<rect x="20" y="32" width="1" height="1" fill="#CD878D" />
<rect x="21" y="32" width="1" height="1" fill="#CD878D" />
<rect x="22" y="32" width="1" height="1" fill="#CD878D" />
<rect x="23" y="32" width="1" height="1" fill="#CD878D" />
<rect x="24" y="32" width="1" height="1" fill="#ED98A0" />
<rect x="25" y="32" width="1" height="1" fill="#ED98A0" />
<rect x="26" y="32" width="1" height="1" fill="#ED98A0" />
<rect x="27" y="32" width="1" height="1" fill="#641B1B" />
<rect x="28" y="32" width="1" height="1" fill="#ED98A0" />
<rect x="29" y="32" width="1" height="1" fill="#ED98A0" />
<rect x="30" y="32" width="1" height="1" fill="#CD878D" />
<rect x="31" y="32" width="1" height="1" fill="#CD878D" />
<rect x="32" y="32" width="1" height="1" fill="#CD878D" />
<rect x="33" y="32" width="1" height="1" fill="#AC3232" />
<rect x="34" y="32" width="1" height="1" fill="#D95763" />
<rect x="35" y="32" width="1" height="1" fill="#AC3232" />
<rect x="36" y="32" width="1" height="1" fill="#AC3232" />
<rect x="37" y="32" width="1" height="1" fill="#D95763" />
<rect x="38" y="32" width="1" height="1" fill="#AC3232" />
<rect x="39" y="32" width="1" height="1" fill="#ED7883" />
<rect x="40" y="32" width="1" height="1" fill="#D95763" />
<rect x="41" y="32" width="1" height="1" fill="#D95763" />
<rect x="42" y="32" width="1" height="1" fill="#D95763" />
<rect x="43" y="32" width="1" height="1" fill="#D95763" />
<rect x="44" y="32" width="1" height="1" fill="#AC3232" />
<rect x="45" y="32" width="1" height="1" fill="#AC3232" />
<rect x="11" y="33" width="1" height="1" fill="#D95763" />
<rect x="12" y="33" width="1" height="1" fill="#EDA6AD" />
<rect x="13" y="33" width="1" height="1" fill="#AC3232" />
<rect x="14" y="33" width="1" height="1" fill="#AC3232" />
<rect x="15" y="33" width="1" height="1" fill="#AC3232" />
<rect x="16" y="33" width="1" height="1" fill="#CD878D" />
<rect x="17" y="33" width="1" height="1" fill="#AC3232" />
<rect x="18" y="33" width="1" height="1" fill="#D95763" />
<rect x="19" y="33" width="1" height="1" fill="#AC3232" />
<rect x="20" y="33" width="1" height="1" fill="#ED98A0" />
<rect x="21" y="33" width="1" height="1" fill="#641B1B" />
<rect x="22" y="33" width="1" height="1" fill="#ED98A0" />
<rect x="23" y="33" width="1" height="1" fill="#ED98A0" />
<rect x="24" y="33" width="1" height="1" fill="#641B1B" />
<rect x="25" y="33" width="1" height="1" fill="#ED98A0" />
<rect x="26" y="33" width="1" height="1" fill="#ED98A0" />
<rect x="27" y="33" width="1" height="1" fill="#ED98A0" />
<rect x="28" y="33" width="1" height="1" fill="#ED98A0" />
<rect x="29" y="33" width="1" height="1" fill="#ED98A0" />
<rect x="30" y="33" width="1" height="1" fill="#641B1B" />
<rect x="31" y="33" width="1" height="1" fill="#ED98A0" />
<rect x="32" y="33" width="1" height="1" fill="#ED98A0" />
<rect x="33" y="33" width="1" height="1" fill="#AC3232" />
<rect x="34" y="33" width="1" height="1" fill="#AC3232" />
<rect x="35" y="33" width="1" height="1" fill="#AC3232" />
<rect x="36" y="33" width="1" height="1" fill="#AC3232" />
<rect x="37" y="33" width="1" height="1" fill="#D95763" />
<rect x="38" y="33" width="1" height="1" fill="#AC3232" />
<rect x="39" y="33" width="1" height="1" fill="#D95763" />
<rect x="40" y="33" width="1" height="1" fill="#D95763" />
<rect x="41" y="33" width="1" height="1" fill="#D95763" />
<rect x="42" y="33" width="1" height="1" fill="#D95763" />
<rect x="43" y="33" width="1" height="1" fill="#AC3232" />
<rect x="44" y="33" width="1" height="1" fill="#EDA6AD" />
<rect x="45" y="33" width="1" height="1" fill="#EDA6AD" />
<rect x="46" y="33" width="1" height="1" fill="#D95763" />
<rect x="9" y="34" width="1" height="1" fill="#D95763" />
<rect x="10" y="34" width="1" height="1" fill="#D95763" />
<rect x="11" y="34" width="1" height="1" fill="#EDA6AD" />
<rect x="12" y="34" width="1" height="1" fill="#EDA6AD" />
<rect x="13" y="34" width="1" height="1" fill="#AC3232" />
<rect x="14" y="34" width="1" height="1" fill="#ED98A0" />
<rect x="15" y="34" width="1" height="1" fill="#AC3232" />
<rect x="16" y="34" width="1" height="1" fill="#ED98A0" />
<rect x="17" y="34" width="1" height="1" fill="#AC3232" />
<rect x="18" y="34" width="1" height="1" fill="#AC3232" />
<rect x="19" y="34" width="1" height="1" fill="#AC3232" />
<rect x="20" y="34" width="1" height="1" fill="#ED98A0" />
<rect x="21" y="34" width="1" height="1" fill="#ED98A0" />
<rect x="22" y="34" width="1" height="1" fill="#ED98A0" />
<rect x="23" y="34" width="1" height="1" fill="#ED98A0" />
<rect x="24" y="34" width="1" height="1" fill="#ED98A0" />
<rect x="25" y="34" width="1" height="1" fill="#ED98A0" />
<rect x="26" y="34" width="1" height="1" fill="#76428A" />
<rect x="27" y="34" width="1" height="1" fill="#ED98A0" />
<rect x="28" y="34" width="1" height="1" fill="#ED98A0" />
<rect x="29" y="34" width="1" height="1" fill="#ED98A0" />
<rect x="30" y="34" width="1" height="1" fill="#ED98A0" />
<rect x="31" y="34" width="1" height="1" fill="#ED98A0" />
<rect x="32" y="34" width="1" height="1" fill="#ED98A0" />
<rect x="33" y="34" width="1" height="1" fill="#ED98A0" />
<rect x="34" y="34" width="1" height="1" fill="#641B1B" />
<rect x="35" y="34" width="1" height="1" fill="#ED98A0" />
<rect x="36" y="34" width="1" height="1" fill="#AC3232" />
<rect x="37" y="34" width="1" height="1" fill="#AC3232" />
<rect x="38" y="34" width="1" height="1" fill="#AC3232" />
<rect x="39" y="34" width="1" height="1" fill="#AC3232" />
<rect x="40" y="34" width="1" height="1" fill="#AC3232" />
<rect x="41" y="34" width="1" height="1" fill="#AC3232" />
<rect x="42" y="34" width="1" height="1" fill="#AC3232" />
<rect x="43" y="34" width="1" height="1" fill="#ED98A0" />
<rect x="44" y="34" width="1" height="1" fill="#CD878D" />
<rect x="45" y="34" width="1" height="1" fill="#EDA6AD" />
<rect x="46" y="34" width="1" height="1" fill="#EDA6AD" />
<rect x="47" y="34" width="1" height="1" fill="#D95763" />
<rect x="48" y="34" width="1" height="1" fill="#D95763" />
<rect x="49" y="34" width="1" height="1" fill="#D95763" />
<rect x="8" y="35" width="1" height="1" fill="#D95763" />
<rect x="9" y="35" width="1" height="1" fill="#EDA6AD" />
<rect x="10" y="35" width="1" height="1" fill="#EDA6AD" />
<rect x="11" y="35" width="1" height="1" fill="#EDA6AD" />
<rect x="12" y="35" width="1" height="1" fill="#CD878D" />
<rect x="13" y="35" width="1" height="1" fill="#ED98A0" />
<rect x="14" y="35" width="1" height="1" fill="#ED98A0" />
<rect x="15" y="35" width="1" height="1" fill="#ED98A0" />
<rect x="16" y="35" width="1" height="1" fill="#ED98A0" />
<rect x="17" y="35" width="1" height="1" fill="#AC3232" />
<rect x="18" y="35" width="1" height="1" fill="#D95763" />
<rect x="19" y="35" width="1" height="1" fill="#AC3232" />
<rect x="20" y="35" width="1" height="1" fill="#ED98A0" />
<rect x="21" y="35" width="1" height="1" fill="#ED98A0" />
<rect x="22" y="35" width="1" height="1" fill="#ED98A0" />
<rect x="23" y="35" width="1" height="1" fill="#76428A" />
<rect x="24" y="35" width="1" height="1" fill="#ED98A0" />
<rect x="25" y="35" width="1" height="1" fill="#ED98A0" />
<rect x="26" y="35" width="1" height="1" fill="#ED98A0" />
<rect x="27" y="35" width="1" height="1" fill="#ED98A0" />
<rect x="28" y="35" width="1" height="1" fill="#ED98A0" />
<rect x="29" y="35" width="1" height="1" fill="#76428A" />
<rect x="30" y="35" width="1" height="1" fill="#ED98A0" />
<rect x="31" y="35" width="1" height="1" fill="#ED98A0" />
<rect x="32" y="35" width="1" height="1" fill="#76428A" />
<rect x="33" y="35" width="1" height="1" fill="#ED98A0" />
<rect x="34" y="35" width="1" height="1" fill="#ED98A0" />
<rect x="35" y="35" width="1" height="1" fill="#ED98A0" />
<rect x="36" y="35" width="1" height="1" fill="#ED98A0" />
<rect x="37" y="35" width="1" height="1" fill="#ED98A0" />
<rect x="38" y="35" width="1" height="1" fill="#641B1B" />
<rect x="39" y="35" width="1" height="1" fill="#ED98A0" />
<rect x="40" y="35" width="1" height="1" fill="#ED98A0" />
<rect x="41" y="35" width="1" height="1" fill="#ED98A0" />
<rect x="42" y="35" width="1" height="1" fill="#641B1B" />
<rect x="43" y="35" width="1" height="1" fill="#ED98A0" />
<rect x="44" y="35" width="1" height="1" fill="#ED98A0" />
<rect x="45" y="35" width="1" height="1" fill="#CD878D" />
<rect x="46" y="35" width="1" height="1" fill="#EDA6AD" />
<rect x="47" y="35" width="1" height="1" fill="#EDA6AD" />
<rect x="48" y="35" width="1" height="1" fill="#EDA6AD" />
<rect x="49" y="35" width="1" height="1" fill="#EDA6AD" />
<rect x="50" y="35" width="1" height="1" fill="#D95763" />
<rect x="51" y="35" width="1" height="1" fill="#D95763" />
<rect x="7" y="36" width="1" height="1" fill="#D95763" />
<rect x="8" y="36" width="1" height="1" fill="#D95763" />
<rect x="9" y="36" width="1" height="1" fill="#EDA6AD" />
<rect x="10" y="36" width="1" height="1" fill="#EDA6AD" />
<rect x="11" y="36" width="1" height="1" fill="#CD878D" />
<rect x="12" y="36" width="1" height="1" fill="#641B1B" />
<rect x="13" y="36" width="1" height="1" fill="#ED98A0" />
<rect x="14" y="36" width="1" height="1" fill="#ED98A0" />
<rect x="15" y="36" width="1" height="1" fill="#76428A" />
<rect x="16" y="36" width="1" height="1" fill="#ED98A0" />
<rect x="17" y="36" width="1" height="1" fill="#AC3232" />
<rect x="18" y="36" width="1" height="1" fill="#AC3232" />
<rect x="19" y="36" width="1" height="1" fill="#AC3232" />
<rect x="20" y="36" width="1" height="1" fill="#ED98A0" />
<rect x="21" y="36" width="1" height="1" fill="#641B1B" />
<rect x="22" y="36" width="1" height="1" fill="#ED98A0" />
<rect x="23" y="36" width="1" height="1" fill="#ED98A0" />
<rect x="24" y="36" width="1" height="1" fill="#ED98A0" />
<rect x="25" y="36" width="1" height="1" fill="#ED98A0" />
<rect x="26" y="36" width="1" height="1" fill="#ED98A0" />
<rect x="27" y="36" width="1" height="1" fill="#641B1B" />
<rect x="28" y="36" width="1" height="1" fill="#ED98A0" />
<rect x="29" y="36" width="1" height="1" fill="#ED98A0" />
<rect x="30" y="36" width="1" height="1" fill="#641B1B" />
<rect x="31" y="36" width="1" height="1" fill="#ED98A0" />
<rect x="32" y="36" width="1" height="1" fill="#ED98A0" />
<rect x="33" y="36" width="1" height="1" fill="#ED98A0" />
<rect x="34" y="36" width="1" height="1" fill="#ED98A0" />
<rect x="35" y="36" width="1" height="1" fill="#ED98A0" />
<rect x="36" y="36" width="1" height="1" fill="#76428A" />
<rect x="37" y="36" width="1" height="1" fill="#ED98A0" />
<rect x="38" y="36" width="1" height="1" fill="#ED98A0" />
<rect x="39" y="36" width="1" height="1" fill="#ED98A0" />
<rect x="40" y="36" width="1" height="1" fill="#76428A" />
<rect x="41" y="36" width="1" height="1" fill="#ED98A0" />
<rect x="42" y="36" width="1" height="1" fill="#ED98A0" />
<rect x="43" y="36" width="1" height="1" fill="#ED98A0" />
<rect x="44" y="36" width="1" height="1" fill="#ED98A0" />
<rect x="45" y="36" width="1" height="1" fill="#641B1B" />
<rect x="46" y="36" width="1" height="1" fill="#CD878D" />
<rect x="47" y="36" width="1" height="1" fill="#CD878D" />
<rect x="48" y="36" width="1" height="1" fill="#CD878D" />
<rect x="49" y="36" width="1" height="1" fill="#EDA6AD" />
<rect x="50" y="36" width="1" height="1" fill="#EDA6AD" />
<rect x="51" y="36" width="1" height="1" fill="#EDA6AD" />
<rect x="52" y="36" width="1" height="1" fill="#D95763" />
<rect x="7" y="37" width="1" height="1" fill="#D95763" />
<rect x="8" y="37" width="1" height="1" fill="#EDA6AD" />
<rect x="9" y="37" width="1" height="1" fill="#EDA6AD" />
<rect x="10" y="37" width="1" height="1" fill="#CD878D" />
<rect x="11" y="37" width="1" height="1" fill="#ED98A0" />
<rect x="12" y="37" width="1" height="1" fill="#ED98A0" />
<rect x="13" y="37" width="1" height="1" fill="#ED98A0" />
<rect x="14" y="37" width="1" height="1" fill="#ED98A0" />
<rect x="15" y="37" width="1" height="1" fill="#ED98A0" />
<rect x="16" y="37" width="1" height="1" fill="#ED98A0" />
<rect x="17" y="37" width="1" height="1" fill="#AC3232" />
<rect x="18" y="37" width="1" height="1" fill="#ED98A0" />
<rect x="19" y="37" width="1" height="1" fill="#AC3232" />
<rect x="20" y="37" width="1" height="1" fill="#ED98A0" />
<rect x="21" y="37" width="1" height="1" fill="#ED98A0" />
<rect x="22" y="37" width="1" height="1" fill="#ED98A0" />
<rect x="23" y="37" width="1" height="1" fill="#ED98A0" />
<rect x="24" y="37" width="1" height="1" fill="#641B1B" />
<rect x="25" y="37" width="1" height="1" fill="#ED98A0" />
<rect x="26" y="37" width="1" height="1" fill="#CD878D" />
<rect x="27" y="37" width="1" height="1" fill="#CD878D" />
<rect x="28" y="37" width="1" height="1" fill="#CD878D" />
<rect x="29" y="37" width="1" height="1" fill="#CD878D" />
<rect x="30" y="37" width="1" height="1" fill="#ED98A0" />
<rect x="31" y="37" width="1" height="1" fill="#ED98A0" />
<rect x="32" y="37" width="1" height="1" fill="#ED98A0" />
<rect x="33" y="37" width="1" height="1" fill="#ED98A0" />
<rect x="34" y="37" width="1" height="1" fill="#ED98A0" />
<rect x="35" y="37" width="1" height="1" fill="#641B1B" />
<rect x="36" y="37" width="1" height="1" fill="#ED98A0" />
<rect x="37" y="37" width="1" height="1" fill="#ED98A0" />
<rect x="38" y="37" width="1" height="1" fill="#ED98A0" />
<rect x="39" y="37" width="1" height="1" fill="#ED98A0" />
<rect x="40" y="37" width="1" height="1" fill="#ED98A0" />
<rect x="41" y="37" width="1" height="1" fill="#ED98A0" />
<rect x="42" y="37" width="1" height="1" fill="#ED98A0" />
<rect x="43" y="37" width="1" height="1" fill="#ED98A0" />
<rect x="44" y="37" width="1" height="1" fill="#76428A" />
<rect x="45" y="37" width="1" height="1" fill="#ED98A0" />
<rect x="46" y="37" width="1" height="1" fill="#ED98A0" />
<rect x="47" y="37" width="1" height="1" fill="#ED98A0" />
<rect x="48" y="37" width="1" height="1" fill="#ED98A0" />
<rect x="49" y="37" width="1" height="1" fill="#CD878D" />
<rect x="50" y="37" width="1" height="1" fill="#CD878D" />
<rect x="51" y="37" width="1" height="1" fill="#EDA6AD" />
<rect x="52" y="37" width="1" height="1" fill="#EDA6AD" />
<rect x="53" y="37" width="1" height="1" fill="#D95763" />
<rect x="7" y="38" width="1" height="1" fill="#D95763" />
<rect x="8" y="38" width="1" height="1" fill="#EDA6AD" />
<rect x="9" y="38" width="1" height="1" fill="#CD878D" />
<rect x="10" y="38" width="1" height="1" fill="#ED98A0" />
<rect x="11" y="38" width="1" height="1" fill="#ED98A0" />
<rect x="12" y="38" width="1" height="1" fill="#76428A" />
<rect x="13" y="38" width="1" height="1" fill="#ED98A0" />
<rect x="14" y="38" width="1" height="1" fill="#76428A" />
<rect x="15" y="38" width="1" height="1" fill="#ED98A0" />
<rect x="16" y="38" width="1" height="1" fill="#ED98A0" />
<rect x="17" y="38" width="1" height="1" fill="#ED98A0" />
<rect x="18" y="38" width="1" height="1" fill="#ED98A0" />
<rect x="19" y="38" width="1" height="1" fill="#ED98A0" />
<rect x="20" y="38" width="1" height="1" fill="#CD878D" />
<rect x="21" y="38" width="1" height="1" fill="#CD878D" />
<rect x="22" y="38" width="1" height="1" fill="#CD878D" />
<rect x="23" y="38" width="1" height="1" fill="#ED98A0" />
<rect x="24" y="38" width="1" height="1" fill="#ED98A0" />
<rect x="25" y="38" width="1" height="1" fill="#CD878D" />
<rect x="26" y="38" width="1" height="1" fill="#EDB9BD" />
<rect x="27" y="38" width="1" height="1" fill="#EDB9BD" />
<rect x="28" y="38" width="1" height="1" fill="#EDB9BD" />
<rect x="29" y="38" width="1" height="1" fill="#EDB9BD" />
<rect x="30" y="38" width="1" height="1" fill="#CD878D" />
<rect x="31" y="38" width="1" height="1" fill="#ED98A0" />
<rect x="32" y="38" width="1" height="1" fill="#641B1B" />
<rect x="33" y="38" width="1" height="1" fill="#ED98A0" />
<rect x="34" y="38" width="1" height="1" fill="#ED98A0" />
<rect x="35" y="38" width="1" height="1" fill="#ED98A0" />
<rect x="36" y="38" width="1" height="1" fill="#CD878D" />
<rect x="37" y="38" width="1" height="1" fill="#CD878D" />
<rect x="38" y="38" width="1" height="1" fill="#CD878D" />
<rect x="39" y="38" width="1" height="1" fill="#ED98A0" />
<rect x="40" y="38" width="1" height="1" fill="#641B1B" />
<rect x="41" y="38" width="1" height="1" fill="#ED98A0" />
<rect x="42" y="38" width="1" height="1" fill="#ED98A0" />
<rect x="43" y="38" width="1" height="1" fill="#641B1B" />
<rect x="44" y="38" width="1" height="1" fill="#CD878D" />
<rect x="45" y="38" width="1" height="1" fill="#CD878D" />
<rect x="46" y="38" width="1" height="1" fill="#CD878D" />
<rect x="47" y="38" width="1" height="1" fill="#ED98A0" />
<rect x="48" y="38" width="1" height="1" fill="#76428A" />
<rect x="49" y="38" width="1" height="1" fill="#ED98A0" />
<rect x="50" y="38" width="1" height="1" fill="#641B1B" />
<rect x="51" y="38" width="1" height="1" fill="#CD878D" />
<rect x="52" y="38" width="1" height="1" fill="#EDA6AD" />
<rect x="53" y="38" width="1" height="1" fill="#EDA6AD" />
<rect x="54" y="38" width="1" height="1" fill="#D95763" />
<rect x="7" y="39" width="1" height="1" fill="#D95763" />
<rect x="8" y="39" width="1" height="1" fill="#EDA6AD" />
<rect x="9" y="39" width="1" height="1" fill="#CD878D" />
<rect x="10" y="39" width="1" height="1" fill="#ED98A0" />
<rect x="11" y="39" width="1" height="1" fill="#641B1B" />
<rect x="12" y="39" width="1" height="1" fill="#ED98A0" />
<rect x="13" y="39" width="1" height="1" fill="#ED98A0" />
<rect x="14" y="39" width="1" height="1" fill="#ED98A0" />
<rect x="15" y="39" width="1" height="1" fill="#ED98A0" />
<rect x="16" y="39" width="1" height="1" fill="#641B1B" />
<rect x="17" y="39" width="1" height="1" fill="#ED98A0" />
<rect x="18" y="39" width="1" height="1" fill="#CD878D" />
<rect x="19" y="39" width="1" height="1" fill="#CD878D" />
<rect x="20" y="39" width="1" height="1" fill="#EDB9BD" />
<rect x="21" y="39" width="1" height="1" fill="#EDB9BD" />
<rect x="22" y="39" width="1" height="1" fill="#EDB9BD" />
<rect x="23" y="39" width="1" height="1" fill="#CD878D" />
<rect x="24" y="39" width="1" height="1" fill="#CD878D" />
<rect x="25" y="39" width="1" height="1" fill="#EDB9BD" />
<rect x="26" y="39" width="1" height="1" fill="#EDB9BD" />
<rect x="27" y="39" width="1" height="1" fill="#EDB9BD" />
<rect x="28" y="39" width="1" height="1" fill="#EDB9BD" />
<rect x="29" y="39" width="1" height="1" fill="#EDB9BD" />
<rect x="30" y="39" width="1" height="1" fill="#EDB9BD" />
<rect x="31" y="39" width="1" height="1" fill="#CD878D" />
<rect x="32" y="39" width="1" height="1" fill="#CD878D" />
<rect x="33" y="39" width="1" height="1" fill="#CD878D" />
<rect x="34" y="39" width="1" height="1" fill="#CD878D" />
<rect x="35" y="39" width="1" height="1" fill="#CD878D" />
<rect x="36" y="39" width="1" height="1" fill="#EDB9BD" />
<rect x="37" y="39" width="1" height="1" fill="#EDB9BD" />
<rect x="38" y="39" width="1" height="1" fill="#EDB9BD" />
<rect x="39" y="39" width="1" height="1" fill="#CD878D" />
<rect x="40" y="39" width="1" height="1" fill="#CD878D" />
<rect x="41" y="39" width="1" height="1" fill="#ED98A0" />
<rect x="42" y="39" width="1" height="1" fill="#CD878D" />
<rect x="43" y="39" width="1" height="1" fill="#CD878D" />
<rect x="44" y="39" width="1" height="1" fill="#EDB9BD" />
<rect x="45" y="39" width="1" height="1" fill="#EDB9BD" />
<rect x="46" y="39" width="1" height="1" fill="#EDB9BD" />
<rect x="47" y="39" width="1" height="1" fill="#CD878D" />
<rect x="48" y="39" width="1" height="1" fill="#ED98A0" />
<rect x="49" y="39" width="1" height="1" fill="#ED98A0" />
<rect x="50" y="39" width="1" height="1" fill="#ED98A0" />
<rect x="51" y="39" width="1" height="1" fill="#ED98A0" />
<rect x="52" y="39" width="1" height="1" fill="#CD878D" />
<rect x="53" y="39" width="1" height="1" fill="#EDA6AD" />
<rect x="54" y="39" width="1" height="1" fill="#EDA6AD" />
<rect x="55" y="39" width="1" height="1" fill="#D95763" />
<rect x="7" y="40" width="1" height="1" fill="#D95763" />
<rect x="8" y="40" width="1" height="1" fill="#EDA6AD" />
<rect x="9" y="40" width="1" height="1" fill="#EDB9BD" />
<rect x="10" y="40" width="1" height="1" fill="#CD878D" />
<rect x="11" y="40" width="1" height="1" fill="#ED98A0" />
<rect x="12" y="40" width="1" height="1" fill="#ED98A0" />
<rect x="13" y="40" width="1" height="1" fill="#641B1B" />
<rect x="14" y="40" width="1" height="1" fill="#ED98A0" />
<rect x="15" y="40" width="1" height="1" fill="#ED98A0" />
<rect x="16" y="40" width="1" height="1" fill="#ED98A0" />
<rect x="17" y="40" width="1" height="1" fill="#CD878D" />
<rect x="18" y="40" width="1" height="1" fill="#EDB9BD" />
<rect x="19" y="40" width="1" height="1" fill="#EDB9BD" />
<rect x="20" y="40" width="1" height="1" fill="#EDB9BD" />
<rect x="21" y="40" width="1" height="1" fill="#EDB9BD" />
<rect x="22" y="40" width="1" height="1" fill="#EDB9BD" />
<rect x="23" y="40" width="1" height="1" fill="#EDB9BD" />
<rect x="24" y="40" width="1" height="1" fill="#EDB9BD" />
<rect x="25" y="40" width="1" height="1" fill="#EDB9BD" />
<rect x="26" y="40" width="1" height="1" fill="#EDB9BD" />
<rect x="27" y="40" width="1" height="1" fill="#EDB9BD" />
<rect x="28" y="40" width="1" height="1" fill="#EDB9BD" />
<rect x="29" y="40" width="1" height="1" fill="#EDB9BD" />
<rect x="30" y="40" width="1" height="1" fill="#EDB9BD" />
<rect x="31" y="40" width="1" height="1" fill="#EDB9BD" />
<rect x="32" y="40" width="1" height="1" fill="#EDB9BD" />
<rect x="33" y="40" width="1" height="1" fill="#EDB9BD" />
<rect x="34" y="40" width="1" height="1" fill="#EDB9BD" />
<rect x="35" y="40" width="1" height="1" fill="#EDB9BD" />
<rect x="36" y="40" width="1" height="1" fill="#EDB9BD" />
<rect x="37" y="40" width="1" height="1" fill="#EDB9BD" />
<rect x="38" y="40" width="1" height="1" fill="#EDB9BD" />
<rect x="39" y="40" width="1" height="1" fill="#EDB9BD" />
<rect x="40" y="40" width="1" height="1" fill="#EDB9BD" />
<rect x="41" y="40" width="1" height="1" fill="#CD878D" />
<rect x="42" y="40" width="1" height="1" fill="#EDB9BD" />
<rect x="43" y="40" width="1" height="1" fill="#EDB9BD" />
<rect x="44" y="40" width="1" height="1" fill="#EDB9BD" />
<rect x="45" y="40" width="1" height="1" fill="#EDB9BD" />
<rect x="46" y="40" width="1" height="1" fill="#EDB9BD" />
<rect x="47" y="40" width="1" height="1" fill="#EDB9BD" />
<rect x="48" y="40" width="1" height="1" fill="#CD878D" />
<rect x="49" y="40" width="1" height="1" fill="#CD878D" />
<rect x="50" y="40" width="1" height="1" fill="#641B1B" />
<rect x="51" y="40" width="1" height="1" fill="#ED98A0" />
<rect x="52" y="40" width="1" height="1" fill="#ED98A0" />
<rect x="53" y="40" width="1" height="1" fill="#CD878D" />
<rect x="54" y="40" width="1" height="1" fill="#EDA6AD" />
<rect x="55" y="40" width="1" height="1" fill="#EDA6AD" />
<rect x="56" y="40" width="1" height="1" fill="#D95763" />
<rect x="8" y="41" width="1" height="1" fill="#D95763" />
<rect x="9" y="41" width="1" height="1" fill="#EDB9BD" />
<rect x="10" y="41" width="1" height="1" fill="#EDB9BD" />
<rect x="11" y="41" width="1" height="1" fill="#CD878D" />
<rect x="12" y="41" width="1" height="1" fill="#CD878D" />
<rect x="13" y="41" width="1" height="1" fill="#CD878D" />
<rect x="14" y="41" width="1" height="1" fill="#CD878D" />
<rect x="15" y="41" width="1" height="1" fill="#CD878D" />
<rect x="16" y="41" width="1" height="1" fill="#CD878D" />
<rect x="17" y="41" width="1" height="1" fill="#EDB9BD" />
<rect x="18" y="41" width="1" height="1" fill="#EDB9BD" />
<rect x="19" y="41" width="1" height="1" fill="#EDB9BD" />
<rect x="20" y="41" width="1" height="1" fill="#D95763" />
<rect x="21" y="41" width="1" height="1" fill="#D95763" />
<rect x="22" y="41" width="1" height="1" fill="#D95763" />
<rect x="23" y="41" width="1" height="1" fill="#EDB9BD" />
<rect x="24" y="41" width="1" height="1" fill="#EDB9BD" />
<rect x="25" y="41" width="1" height="1" fill="#EDB9BD" />
<rect x="26" y="41" width="1" height="1" fill="#EDB9BD" />
<rect x="27" y="41" width="1" height="1" fill="#D95763" />
<rect x="28" y="41" width="1" height="1" fill="#EDB9BD" />
<rect x="29" y="41" width="1" height="1" fill="#EDB9BD" />
<rect x="30" y="41" width="1" height="1" fill="#EDB9BD" />
<rect x="31" y="41" width="1" height="1" fill="#EDB9BD" />
<rect x="32" y="41" width="1" height="1" fill="#D95763" />
<rect x="33" y="41" width="1" height="1" fill="#D95763" />
<rect x="34" y="41" width="1" height="1" fill="#D95763" />
<rect x="35" y="41" width="1" height="1" fill="#EDB9BD" />
<rect x="36" y="41" width="1" height="1" fill="#EDB9BD" />
<rect x="37" y="41" width="1" height="1" fill="#EDB9BD" />
<rect x="38" y="41" width="1" height="1" fill="#EDB9BD" />
<rect x="39" y="41" width="1" height="1" fill="#EDB9BD" />
<rect x="40" y="41" width="1" height="1" fill="#EDB9BD" />
<rect x="41" y="41" width="1" height="1" fill="#EDB9BD" />
<rect x="42" y="41" width="1" height="1" fill="#EDB9BD" />
<rect x="43" y="41" width="1" height="1" fill="#EDB9BD" />
<rect x="44" y="41" width="1" height="1" fill="#EDB9BD" />
<rect x="45" y="41" width="1" height="1" fill="#EDB9BD" />
<rect x="46" y="41" width="1" height="1" fill="#EDB9BD" />
<rect x="47" y="41" width="1" height="1" fill="#EDB9BD" />
<rect x="48" y="41" width="1" height="1" fill="#EDB9BD" />
<rect x="49" y="41" width="1" height="1" fill="#EDB9BD" />
<rect x="50" y="41" width="1" height="1" fill="#CD878D" />
<rect x="51" y="41" width="1" height="1" fill="#CD878D" />
<rect x="52" y="41" width="1" height="1" fill="#CD878D" />
<rect x="53" y="41" width="1" height="1" fill="#CD878D" />
<rect x="54" y="41" width="1" height="1" fill="#CD878D" />
<rect x="55" y="41" width="1" height="1" fill="#EDB9BD" />
<rect x="56" y="41" width="1" height="1" fill="#EDB9BD" />
<rect x="57" y="41" width="1" height="1" fill="#D95763" />
<rect x="8" y="42" width="1" height="1" fill="#D95763" />
<rect x="9" y="42" width="1" height="1" fill="#D95763" />
<rect x="10" y="42" width="1" height="1" fill="#EDB9BD" />
<rect x="11" y="42" width="1" height="1" fill="#EDB9BD" />
<rect x="12" y="42" width="1" height="1" fill="#EDB9BD" />
<rect x="13" y="42" width="1" height="1" fill="#EDB9BD" />
<rect x="14" y="42" width="1" height="1" fill="#EDB9BD" />
<rect x="15" y="42" width="1" height="1" fill="#EDB9BD" />
<rect x="16" y="42" width="1" height="1" fill="#EDB9BD" />
<rect x="17" y="42" width="1" height="1" fill="#EDB9BD" />
<rect x="18" y="42" width="1" height="1" fill="#D95763" />
<rect x="19" y="42" width="1" height="1" fill="#D95763" />
<rect x="23" y="42" width="1" height="1" fill="#D95763" />
<rect x="24" y="42" width="1" height="1" fill="#D95763" />
<rect x="25" y="42" width="1" height="1" fill="#D95763" />
<rect x="26" y="42" width="1" height="1" fill="#D95763" />
<rect x="28" y="42" width="1" height="1" fill="#D95763" />
<rect x="29" y="42" width="1" height="1" fill="#D95763" />
<rect x="30" y="42" width="1" height="1" fill="#D95763" />
<rect x="31" y="42" width="1" height="1" fill="#D95763" />
<rect x="35" y="42" width="1" height="1" fill="#D95763" />
<rect x="36" y="42" width="1" height="1" fill="#D95763" />
<rect x="37" y="42" width="1" height="1" fill="#D95763" />
<rect x="38" y="42" width="1" height="1" fill="#EDB9BD" />
<rect x="39" y="42" width="1" height="1" fill="#EDB9BD" />
<rect x="40" y="42" width="1" height="1" fill="#EDB9BD" />
<rect x="41" y="42" width="1" height="1" fill="#EDB9BD" />
<rect x="42" y="42" width="1" height="1" fill="#EDB9BD" />
<rect x="43" y="42" width="1" height="1" fill="#EDB9BD" />
<rect x="44" y="42" width="1" height="1" fill="#D95763" />
<rect x="45" y="42" width="1" height="1" fill="#D95763" />
<rect x="46" y="42" width="1" height="1" fill="#D95763" />
<rect x="47" y="42" width="1" height="1" fill="#D95763" />
<rect x="48" y="42" width="1" height="1" fill="#EDB9BD" />
<rect x="49" y="42" width="1" height="1" fill="#EDB9BD" />
<rect x="50" y="42" width="1" height="1" fill="#EDB9BD" />
<rect x="51" y="42" width="1" height="1" fill="#EDB9BD" />
<rect x="52" y="42" width="1" height="1" fill="#EDB9BD" />
<rect x="53" y="42" width="1" height="1" fill="#EDB9BD" />
<rect x="54" y="42" width="1" height="1" fill="#EDB9BD" />
<rect x="55" y="42" width="1" height="1" fill="#EDB9BD" />
<rect x="56" y="42" width="1" height="1" fill="#D95763" />
<rect x="10" y="43" width="1" height="1" fill="#D95763" />
<rect x="11" y="43" width="1" height="1" fill="#D95763" />
<rect x="12" y="43" width="1" height="1" fill="#D95763" />
<rect x="13" y="43" width="1" height="1" fill="#D95763" />
<rect x="14" y="43" width="1" height="1" fill="#D95763" />
<rect x="15" y="43" width="1" height="1" fill="#D95763" />
<rect x="16" y="43" width="1" height="1" fill="#D95763" />
<rect x="17" y="43" width="1" height="1" fill="#D95763" />
<rect x="38" y="43" width="1" height="1" fill="#D95763" />
<rect x="39" y="43" width="1" height="1" fill="#D95763" />
<rect x="40" y="43" width="1" height="1" fill="#D95763" />
<rect x="41" y="43" width="1" height="1" fill="#D95763" />
<rect x="42" y="43" width="1" height="1" fill="#D95763" />
<rect x="43" y="43" width="1" height="1" fill="#D95763" />
<rect x="48" y="43" width="1" height="1" fill="#D95763" />
<rect x="49" y="43" width="1" height="1" fill="#D95763" />
<rect x="50" y="43" width="1" height="1" fill="#D95763" />
<rect x="51" y="43" width="1" height="1" fill="#D95763" />
<rect x="52" y="43" width="1" height="1" fill="#D95763" />
<rect x="53" y="43" width="1" height="1" fill="#D95763" />
<rect x="54" y="43" width="1" height="1" fill="#D95763" />
<rect x="55" y="43" width="1" height="1" fill="#D95763" />
</svg>