<?xml version="1.0" encoding="UTF-8" ?>
<svg version="1.1" width="128" height="64" xmlns="http://www.w3.org/2000/svg" shape-rendering="crispEdges">
<rect x="39" y="20" width="1" height="1" fill="#595652" />
<rect x="40" y="20" width="1" height="1" fill="#595652" />
<rect x="41" y="20" width="1" height="1" fill="#595652" />
<rect x="42" y="20" width="1" height="1" fill="#595652" />
<rect x="43" y="20" width="1" height="1" fill="#595652" />
<rect x="44" y="20" width="1" height="1" fill="#595652" />
<rect x="45" y="20" width="1" height="1" fill="#595652" />
<rect x="46" y="20" width="1" height="1" fill="#595652" />
<rect x="47" y="20" width="1" height="1" fill="#595652" />
<rect x="48" y="20" width="1" height="1" fill="#595652" />
<rect x="49" y="20" width="1" height="1" fill="#595652" />
<rect x="50" y="20" width="1" height="1" fill="#595652" />
<rect x="51" y="20" width="1" height="1" fill="#595652" />
<rect x="52" y="20" width="1" height="1" fill="#595652" />
<rect x="38" y="21" width="1" height="1" fill="#595652" />
<rect x="39" y="21" width="1" height="1" fill="#595652" />
<rect x="40" y="21" width="1" height="1" fill="#847E87" />
<rect x="41" y="21" width="1" height="1" fill="#847E87" />
<rect x="42" y="21" width="1" height="1" fill="#847E87" />
<rect x="43" y="21" width="1" height="1" fill="#847E87" />
<rect x="44" y="21" width="1" height="1" fill="#847E87" />
<rect x="45" y="21" width="1" height="1" fill="#847E87" />
<rect x="46" y="21" width="1" height="1" fill="#847E87" />
<rect x="47" y="21" width="1" height="1" fill="#847E87" />
<rect x="48" y="21" width="1" height="1" fill="#847E87" />
<rect x="49" y="21" width="1" height="1" fill="#847E87" />
<rect x="50" y="21" width="1" height="1" fill="#847E87" />
<rect x="51" y="21" width="1" height="1" fill="#847E87" />
<rect x="52" y="21" width="1" height="1" fill="#595652" />
<rect x="53" y="21" width="1" height="1" fill="#595652" />
<rect x="54" y="21" width="1" height="1" fill="#595652" />
<rect x="37" y="22" width="1" height="1" fill="#595652" />
<rect x="38" y="22" width="1" height="1" fill="#595652" />
<rect x="39" y="22" width="1" height="1" fill="#847E87" />
<rect x="40" y="22" width="1" height="1" fill="#847E87" />
<rect x="41" y="22" width="1" height="1" fill="#847E87" />
<rect x="42" y="22" width="1" height="1" fill="#847E87" />
<rect x="43" y="22" width="1" height="1" fill="#847E87" />
<rect x="44" y="22" width="1" height="1" fill="#847E87" />
<rect x="45" y="22" width="1" height="1" fill="#847E87" />
<rect x="46" y="22" width="1" height="1" fill="#847E87" />
<rect x="47" y="22" width="1" height="1" fill="#847E87" />
<rect x="48" y="22" width="1" height="1" fill="#847E87" />
<rect x="49" y="22" width="1" height="1" fill="#847E87" />
<rect x="50" y="22" width="1" height="1" fill="#847E87" />
<rect x="51" y="22" width="1" height="1" fill="#847E87" />
<rect x="52" y="22" width="1" height="1" fill="#847E87" />
<rect x="53" y="22" width="1" height="1" fill="#847E87" />
<rect x="54" y="22" width="1" height="1" fill="#595652" />
<rect x="55" y="22" width="1" height="1" fill="#595652" />
<rect x="35" y="23" width="1" height="1" fill="#595652" />
<rect x="36" y="23" width="1" height="1" fill="#595652" />
<rect x="37" y="23" width="1" height="1" fill="#595652" />
<rect x="38" y="23" width="1" height="1" fill="#847E87" />
<rect x="39" y="23" width="1" height="1" fill="#847E87" />
<rect x="40" y="23" width="1" height="1" fill="#847E87" />
<rect x="41" y="23" width="1" height="1" fill="#847E87" />
<rect x="42" y="23" width="1" height="1" fill="#847E87" />
<rect x="43" y="23" width="1" height="1" fill="#847E87" />
<rect x="44" y="23" width="1" height="1" fill="#847E87" />
<rect x="45" y="23" width="1" height="1" fill="#847E87" />
<rect x="46" y="23" width="1" height="1" fill="#847E87" />
<rect x="47" y="23" width="1" height="1" fill="#847E87" />
<rect x="48" y="23" width="1" height="1" fill="#847E87" />
<rect x="49" y="23" width="1" height="1" fill="#847E87" />
<rect x="50" y="23" width="1" height="1" fill="#847E87" />
<rect x="51" y="23" width="1" height="1" fill="#847E87" />
<rect x="52" y="23" width="1" height="1" fill="#847E87" />
<rect x="53" y="23" width="1" height="1" fill="#847E87" />
<rect x="54" y="23" width="1" height="1" fill="#847E87" />
<rect x="55" y="23" width="1" height="1" fill="#595652" />
<rect x="56" y="23" width="1" height="1" fill="#595652" />
<rect x="34" y="24" width="1" height="1" fill="#595652" />
<rect x="35" y="24" width="1" height="1" fill="#595652" />
<rect x="36" y="24" width="1" height="1" fill="#847E87" />
<rect x="37" y="24" width="1" height="1" fill="#847E87" />
<rect x="38" y="24" width="1" height="1" fill="#847E87" />
<rect x="39" y="24" width="1" height="1" fill="#847E87" />
<rect x="40" y="24" width="1" height="1" fill="#847E87" />
<rect x="41" y="24" width="1" height="1" fill="#847E87" />
<rect x="42" y="24" width="1" height="1" fill="#847E87" />
<rect x="43" y="24" width="1" height="1" fill="#847E87" />
<rect x="44" y="24" width="1" height="1" fill="#847E87" />
<rect x="45" y="24" width="1" height="1" fill="#847E87" />
<rect x="46" y="24" width="1" height="1" fill="#847E87" />
<rect x="47" y="24" width="1" height="1" fill="#847E87" />
<rect x="48" y="24" width="1" height="1" fill="#847E87" />
<rect x="49" y="24" width="1" height="1" fill="#847E87" />
<rect x="50" y="24" width="1" height="1" fill="#847E87" />
<rect x="51" y="24" width="1" height="1" fill="#847E87" />
<rect x="52" y="24" width="1" height="1" fill="#847E87" />
<rect x="53" y="24" width="1" height="1" fill="#847E87" />
<rect x="54" y="24" width="1" height="1" fill="#847E87" />
<rect x="55" y="24" width="1" height="1" fill="#847E87" />
<rect x="56" y="24" width="1" height="1" fill="#595652" />
<rect x="57" y="24" width="1" height="1" fill="#595652" />
<rect x="33" y="25" width="1" height="1" fill="#595652" />
<rect x="34" y="25" width="1" height="1" fill="#595652" />
<rect x="35" y="25" width="1" height="1" fill="#847E87" />
<rect x="36" y="25" width="1" height="1" fill="#847E87" />
<rect x="37" y="25" width="1" height="1" fill="#847E87" />
<rect x="38" y="25" width="1" height="1" fill="#847E87" />
<rect x="39" y="25" width="1" height="1" fill="#847E87" />
<rect x="40" y="25" width="1" height="1" fill="#847E87" />
<rect x="41" y="25" width="1" height="1" fill="#847E87" />
<rect x="42" y="25" width="1" height="1" fill="#847E87" />
<rect x="43" y="25" width="1" height="1" fill="#847E87" />
<rect x="44" y="25" width="1" height="1" fill="#847E87" />
<rect x="45" y="25" width="1" height="1" fill="#847E87" />
<rect x="46" y="25" width="1" height="1" fill="#847E87" />
<rect x="47" y="25" width="1" height="1" fill="#847E87" />
<rect x="48" y="25" width="1" height="1" fill="#847E87" />
<rect x="49" y="25" width="1" height="1" fill="#847E87" />
<rect x="50" y="25" width="1" height="1" fill="#847E87" />
<rect x="51" y="25" width="1" height="1" fill="#847E87" />
<rect x="52" y="25" width="1" height="1" fill="#595652" />
<rect x="53" y="25" width="1" height="1" fill="#595652" />
<rect x="54" y="25" width="1" height="1" fill="#595652" />
<rect x="55" y="25" width="1" height="1" fill="#595652" />
<rect x="56" y="25" width="1" height="1" fill="#595652" />
<rect x="57" y="25" width="1" height="1" fill="#595652" />
<rect x="58" y="25" width="1" height="1" fill="#595652" />
<rect x="59" y="25" width="1" height="1" fill="#595652" />
<rect x="60" y="25" width="1" height="1" fill="#595652" />
<rect x="61" y="25" width="1" height="1" fill="#595652" />
<rect x="62" y="25" width="1" height="1" fill="#595652" />
<rect x="63" y="25" width="1" height="1" fill="#595652" />
<rect x="64" y="25" width="1" height="1" fill="#595652" />
<rect x="32" y="26" width="1" height="1" fill="#595652" />
<rect x="33" y="26" width="1" height="1" fill="#595652" />
<rect x="34" y="26" width="1" height="1" fill="#847E87" />
<rect x="35" y="26" width="1" height="1" fill="#847E87" />
<rect x="36" y="26" width="1" height="1" fill="#595652" />
<rect x="37" y="26" width="1" height="1" fill="#595652" />
<rect x="38" y="26" width="1" height="1" fill="#595652" />
<rect x="39" y="26" width="1" height="1" fill="#595652" />
<rect x="40" y="26" width="1" height="1" fill="#595652" />
<rect x="41" y="26" width="1" height="1" fill="#595652" />
<rect x="42" y="26" width="1" height="1" fill="#595652" />
<rect x="43" y="26" width="1" height="1" fill="#595652" />
<rect x="44" y="26" width="1" height="1" fill="#595652" />
<rect x="45" y="26" width="1" height="1" fill="#595652" />
<rect x="46" y="26" width="1" height="1" fill="#595652" />
<rect x="47" y="26" width="1" height="1" fill="#595652" />
<rect x="48" y="26" width="1" height="1" fill="#595652" />
<rect x="49" y="26" width="1" height="1" fill="#595652" />
<rect x="50" y="26" width="1" height="1" fill="#595652" />
<rect x="51" y="26" width="1" height="1" fill="#595652" />
<rect x="52" y="26" width="1" height="1" fill="#595652" />
<rect x="53" y="26" width="1" height="1" fill="#847E87" />
<rect x="54" y="26" width="1" height="1" fill="#847E87" />
<rect x="55" y="26" width="1" height="1" fill="#847E87" />
<rect x="56" y="26" width="1" height="1" fill="#847E87" />
<rect x="57" y="26" width="1" height="1" fill="#847E87" />
<rect x="58" y="26" width="1" height="1" fill="#847E87" />
<rect x="59" y="26" width="1" height="1" fill="#847E87" />
<rect x="60" y="26" width="1" height="1" fill="#847E87" />
<rect x="61" y="26" width="1" height="1" fill="#847E87" />
<rect x="62" y="26" width="1" height="1" fill="#847E87" />
<rect x="63" y="26" width="1" height="1" fill="#847E87" />
<rect x="64" y="26" width="1" height="1" fill="#595652" />
<rect x="65" y="26" width="1" height="1" fill="#595652" />
<rect x="66" y="26" width="1" height="1" fill="#595652" />
<rect x="31" y="27" width="1" height="1" fill="#595652" />
<rect x="32" y="27" width="1" height="1" fill="#595652" />
<rect x="33" y="27" width="1" height="1" fill="#847E87" />
<rect x="34" y="27" width="1" height="1" fill="#847E87" />
<rect x="35" y="27" width="1" height="1" fill="#595652" />
<rect x="36" y="27" width="1" height="1" fill="#696A6A" />
<rect x="37" y="27" width="1" height="1" fill="#696A6A" />
<rect x="38" y="27" width="1" height="1" fill="#696A6A" />
<rect x="39" y="27" width="1" height="1" fill="#696A6A" />
<rect x="40" y="27" width="1" height="1" fill="#696A6A" />
<rect x="41" y="27" width="1" height="1" fill="#696A6A" />
<rect x="42" y="27" width="1" height="1" fill="#696A6A" />
<rect x="43" y="27" width="1" height="1" fill="#696A6A" />
<rect x="44" y="27" width="1" height="1" fill="#696A6A" />
<rect x="45" y="27" width="1" height="1" fill="#696A6A" />
<rect x="46" y="27" width="1" height="1" fill="#696A6A" />
<rect x="47" y="27" width="1" height="1" fill="#696A6A" />
<rect x="48" y="27" width="1" height="1" fill="#696A6A" />
<rect x="49" y="27" width="1" height="1" fill="#696A6A" />
<rect x="50" y="27" width="1" height="1" fill="#595652" />
<rect x="51" y="27" width="1" height="1" fill="#847E87" />
<rect x="52" y="27" width="1" height="1" fill="#847E87" />
<rect x="53" y="27" width="1" height="1" fill="#847E87" />
<rect x="54" y="27" width="1" height="1" fill="#CBDBFC" />
<rect x="55" y="27" width="1" height="1" fill="#847E87" />
<rect x="56" y="27" width="1" height="1" fill="#CBDBFC" />
<rect x="57" y="27" width="1" height="1" fill="#847E87" />
<rect x="58" y="27" width="1" height="1" fill="#CBDBFC" />
<rect x="59" y="27" width="1" height="1" fill="#847E87" />
<rect x="60" y="27" width="1" height="1" fill="#CBDBFC" />
<rect x="61" y="27" width="1" height="1" fill="#847E87" />
<rect x="62" y="27" width="1" height="1" fill="#CBDBFC" />
<rect x="63" y="27" width="1" height="1" fill="#847E87" />
<rect x="64" y="27" width="1" height="1" fill="#847E87" />
<rect x="65" y="27" width="1" height="1" fill="#847E87" />
<rect x="66" y="27" width="1" height="1" fill="#595652" />
<rect x="67" y="27" width="1" height="1" fill="#595652" />
<rect x="68" y="27" width="1" height="1" fill="#595652" />
<rect x="30" y="28" width="1" height="1" fill="#595652" />
<rect x="31" y="28" width="1" height="1" fill="#595652" />
<rect x="32" y="28" width="1" height="1" fill="#847E87" />
<rect x="33" y="28" width="1" height="1" fill="#847E87" />
<rect x="34" y="28" width="1" height="1" fill="#595652" />
<rect x="35" y="28" width="1" height="1" fill="#696A6A" />
<rect x="36" y="28" width="1" height="1" fill="#696A6A" />
<rect x="37" y="28" width="1" height="1" fill="#696A6A" />
<rect x="38" y="28" width="1" height="1" fill="#696A6A" />
<rect x="39" y="28" width="1" height="1" fill="#696A6A" />
<rect x="40" y="28" width="1" height="1" fill="#696A6A" />
<rect x="41" y="28" width="1" height="1" fill="#847E87" />
<rect x="42" y="28" width="1" height="1" fill="#696A6A" />
<rect x="43" y="28" width="1" height="1" fill="#847E87" />
<rect x="44" y="28" width="1" height="1" fill="#696A6A" />
<rect x="45" y="28" width="1" height="1" fill="#847E87" />
<rect x="46" y="28" width="1" height="1" fill="#696A6A" />
<rect x="47" y="28" width="1" height="1" fill="#696A6A" />
<rect x="48" y="28" width="1" height="1" fill="#595652" />
<rect x="49" y="28" width="1" height="1" fill="#595652" />
<rect x="50" y="28" width="1" height="1" fill="#595652" />
<rect x="51" y="28" width="1" height="1" fill="#847E87" />
<rect x="52" y="28" width="1" height="1" fill="#CBDBFC" />
<rect x="53" y="28" width="1" height="1" fill="#847E87" />
<rect x="54" y="28" width="1" height="1" fill="#847E87" />
<rect x="55" y="28" width="1" height="1" fill="#CBDBFC" />
<rect x="56" y="28" width="1" height="1" fill="#847E87" />
<rect x="57" y="28" width="1" height="1" fill="#CBDBFC" />
<rect x="58" y="28" width="1" height="1" fill="#847E87" />
<rect x="59" y="28" width="1" height="1" fill="#CBDBFC" />
<rect x="60" y="28" width="1" height="1" fill="#847E87" />
<rect x="61" y="28" width="1" height="1" fill="#CBDBFC" />
<rect x="62" y="28" width="1" height="1" fill="#847E87" />
<rect x="63" y="28" width="1" height="1" fill="#CBDBFC" />
<rect x="64" y="28" width="1" height="1" fill="#847E87" />
<rect x="65" y="28" width="1" height="1" fill="#CBDBFC" />
<rect x="66" y="28" width="1" height="1" fill="#847E87" />
<rect x="67" y="28" width="1" height="1" fill="#847E87" />
<rect x="68" y="28" width="1" height="1" fill="#595652" />
<rect x="69" y="28" width="1" height="1" fill="#595652" />
<rect x="70" y="28" width="1" height="1" fill="#595652" />
<rect x="71" y="28" width="1" height="1" fill="#595652" />
<rect x="72" y="28" width="1" height="1" fill="#595652" />
<rect x="73" y="28" width="1" height="1" fill="#595652" />
<rect x="30" y="29" width="1" height="1" fill="#595652" />
<rect x="31" y="29" width="1" height="1" fill="#847E87" />
<rect x="32" y="29" width="1" height="1" fill="#847E87" />
<rect x="33" y="29" width="1" height="1" fill="#595652" />
<rect x="34" y="29" width="1" height="1" fill="#696A6A" />
<rect x="35" y="29" width="1" height="1" fill="#847E87" />
<rect x="36" y="29" width="1" height="1" fill="#696A6A" />
<rect x="37" y="29" width="1" height="1" fill="#595652" />
<rect x="38" y="29" width="1" height="1" fill="#595652" />
<rect x="39" y="29" width="1" height="1" fill="#595652" />
<rect x="40" y="29" width="1" height="1" fill="#696A6A" />
<rect x="41" y="29" width="1" height="1" fill="#696A6A" />
<rect x="42" y="29" width="1" height="1" fill="#696A6A" />
<rect x="43" y="29" width="1" height="1" fill="#696A6A" />
<rect x="44" y="29" width="1" height="1" fill="#696A6A" />
<rect x="45" y="29" width="1" height="1" fill="#696A6A" />
<rect x="46" y="29" width="1" height="1" fill="#696A6A" />
<rect x="47" y="29" width="1" height="1" fill="#696A6A" />
<rect x="48" y="29" width="1" height="1" fill="#595652" />
<rect x="49" y="29" width="1" height="1" fill="#847E87" />
<rect x="50" y="29" width="1" height="1" fill="#847E87" />
<rect x="51" y="29" width="1" height="1" fill="#847E87" />
<rect x="52" y="29" width="1" height="1" fill="#847E87" />
<rect x="53" y="29" width="1" height="1" fill="#CBDBFC" />
<rect x="54" y="29" width="1" height="1" fill="#CBDBFC" />
<rect x="55" y="29" width="1" height="1" fill="#CBDBFC" />
<rect x="56" y="29" width="1" height="1" fill="#CBDBFC" />
<rect x="57" y="29" width="1" height="1" fill="#CBDBFC" />
<rect x="58" y="29" width="1" height="1" fill="#CBDBFC" />
<rect x="59" y="29" width="1" height="1" fill="#CBDBFC" />
<rect x="60" y="29" width="1" height="1" fill="#CBDBFC" />
<rect x="61" y="29" width="1" height="1" fill="#CBDBFC" />
<rect x="62" y="29" width="1" height="1" fill="#CBDBFC" />
<rect x="63" y="29" width="1" height="1" fill="#CBDBFC" />
<rect x="64" y="29" width="1" height="1" fill="#CBDBFC" />
<rect x="65" y="29" width="1" height="1" fill="#847E87" />
<rect x="66" y="29" width="1" height="1" fill="#CBDBFC" />
<rect x="67" y="29" width="1" height="1" fill="#847E87" />
<rect x="68" y="29" width="1" height="1" fill="#847E87" />
<rect x="69" y="29" width="1" height="1" fill="#847E87" />
<rect x="70" y="29" width="1" height="1" fill="#595652" />
<rect x="71" y="29" width="1" height="1" fill="#595652" />
<rect x="72" y="29" width="1" height="1" fill="#696A6A" />
<rect x="73" y="29" width="1" height="1" fill="#696A6A" />
<rect x="74" y="29" width="1" height="1" fill="#595652" />
<rect x="75" y="29" width="1" height="1" fill="#595652" />
<rect x="76" y="29" width="1" height="1" fill="#595652" />
<rect x="77" y="29" width="1" height="1" fill="#595652" />
<rect x="78" y="29" width="1" height="1" fill="#595652" />
<rect x="79" y="29" width="1" height="1" fill="#595652" />
<rect x="80" y="29" width="1" height="1" fill="#595652" />
<rect x="81" y="29" width="1" height="1" fill="#595652" />
<rect x="82" y="29" width="1" height="1" fill="#595652" />
<rect x="83" y="29" width="1" height="1" fill="#595652" />
<rect x="84" y="29" width="1" height="1" fill="#595652" />
<rect x="85" y="29" width="1" height="1" fill="#595652" />
<rect x="86" y="29" width="1" height="1" fill="#595652" />
<rect x="87" y="29" width="1" height="1" fill="#595652" />
<rect x="88" y="29" width="1" height="1" fill="#595652" />
<rect x="89" y="29" width="1" height="1" fill="#595652" />
<rect x="90" y="29" width="1" height="1" fill="#595652" />
<rect x="91" y="29" width="1" height="1" fill="#595652" />
<rect x="92" y="29" width="1" height="1" fill="#595652" />
<rect x="93" y="29" width="1" height="1" fill="#595652" />
<rect x="94" y="29" width="1" height="1" fill="#595652" />
<rect x="95" y="29" width="1" height="1" fill="#595652" />
<rect x="96" y="29" width="1" height="1" fill="#595652" />
<rect x="97" y="29" width="1" height="1" fill="#595652" />
<rect x="98" y="29" width="1" height="1" fill="#595652" />
<rect x="99" y="29" width="1" height="1" fill="#595652" />
<rect x="100" y="29" width="1" height="1" fill="#595652" />
<rect x="101" y="29" width="1" height="1" fill="#595652" />
<rect x="102" y="29" width="1" height="1" fill="#595652" />
<rect x="103" y="29" width="1" height="1" fill="#595652" />
<rect x="104" y="29" width="1" height="1" fill="#595652" />
<rect x="105" y="29" width="1" height="1" fill="#595652" />
<rect x="106" y="29" width="1" height="1" fill="#595652" />
<rect x="107" y="29" width="1" height="1" fill="#595652" />
<rect x="108" y="29" width="1" height="1" fill="#595652" />
<rect x="30" y="30" width="1" height="1" fill="#595652" />
<rect x="31" y="30" width="1" height="1" fill="#847E87" />
<rect x="32" y="30" width="1" height="1" fill="#595652" />
<rect x="33" y="30" width="1" height="1" fill="#696A6A" />
<rect x="34" y="30" width="1" height="1" fill="#696A6A" />
<rect x="35" y="30" width="1" height="1" fill="#696A6A" />
<rect x="36" y="30" width="1" height="1" fill="#595652" />
<rect x="37" y="30" width="1" height="1" fill="#696A6A" />
<rect x="38" y="30" width="1" height="1" fill="#696A6A" />
<rect x="39" y="30" width="1" height="1" fill="#696A6A" />
<rect x="40" y="30" width="1" height="1" fill="#696A6A" />
<rect x="41" y="30" width="1" height="1" fill="#847E87" />
<rect x="42" y="30" width="1" height="1" fill="#696A6A" />
<rect x="43" y="30" width="1" height="1" fill="#696A6A" />
<rect x="44" y="30" width="1" height="1" fill="#847E87" />
<rect x="45" y="30" width="1" height="1" fill="#696A6A" />
<rect x="46" y="30" width="1" height="1" fill="#696A6A" />
<rect x="47" y="30" width="1" height="1" fill="#595652" />
<rect x="48" y="30" width="1" height="1" fill="#595652" />
<rect x="49" y="30" width="1" height="1" fill="#847E87" />
<rect x="50" y="30" width="1" height="1" fill="#CBDBFC" />
<rect x="51" y="30" width="1" height="1" fill="#847E87" />
<rect x="52" y="30" width="1" height="1" fill="#CBDBFC" />
<rect x="53" y="30" width="1" height="1" fill="#CBDBFC" />
<rect x="54" y="30" width="1" height="1" fill="#CBDBFC" />
<rect x="55" y="30" width="1" height="1" fill="#CBDBFC" />
<rect x="56" y="30" width="1" height="1" fill="#CBDBFC" />
<rect x="57" y="30" width="1" height="1" fill="#CBDBFC" />
<rect x="58" y="30" width="1" height="1" fill="#CBDBFC" />
<rect x="59" y="30" width="1" height="1" fill="#CBDBFC" />
<rect x="60" y="30" width="1" height="1" fill="#CBDBFC" />
<rect x="61" y="30" width="1" height="1" fill="#CBDBFC" />
<rect x="62" y="30" width="1" height="1" fill="#CBDBFC" />
<rect x="63" y="30" width="1" height="1" fill="#CBDBFC" />
<rect x="64" y="30" width="1" height="1" fill="#CBDBFC" />
<rect x="65" y="30" width="1" height="1" fill="#CBDBFC" />
<rect x="66" y="30" width="1" height="1" fill="#847E87" />
<rect x="67" y="30" width="1" height="1" fill="#CBDBFC" />
<rect x="68" y="30" width="1" height="1" fill="#847E87" />
<rect x="69" y="30" width="1" height="1" fill="#847E87" />
<rect x="70" y="30" width="1" height="1" fill="#847E87" />
<rect x="71" y="30" width="1" height="1" fill="#595652" />
<rect x="72" y="30" width="1" height="1" fill="#595652" />
<rect x="73" y="30" width="1" height="1" fill="#847E87" />
<rect x="74" y="30" width="1" height="1" fill="#696A6A" />
<rect x="75" y="30" width="1" height="1" fill="#847E87" />
<rect x="76" y="30" width="1" height="1" fill="#595652" />
<rect x="77" y="30" width="1" height="1" fill="#696A6A" />
<rect x="78" y="30" width="1" height="1" fill="#696A6A" />
<rect x="79" y="30" width="1" height="1" fill="#696A6A" />
<rect x="80" y="30" width="1" height="1" fill="#696A6A" />
<rect x="81" y="30" width="1" height="1" fill="#696A6A" />
<rect x="82" y="30" width="1" height="1" fill="#696A6A" />
<rect x="83" y="30" width="1" height="1" fill="#696A6A" />
<rect x="84" y="30" width="1" height="1" fill="#696A6A" />
<rect x="85" y="30" width="1" height="1" fill="#696A6A" />
<rect x="86" y="30" width="1" height="1" fill="#696A6A" />
<rect x="87" y="30" width="1" height="1" fill="#696A6A" />
<rect x="88" y="30" width="1" height="1" fill="#696A6A" />
<rect x="89" y="30" width="1" height="1" fill="#696A6A" />
<rect x="90" y="30" width="1" height="1" fill="#696A6A" />
<rect x="91" y="30" width="1" height="1" fill="#696A6A" />
<rect x="92" y="30" width="1" height="1" fill="#696A6A" />
<rect x="93" y="30" width="1" height="1" fill="#696A6A" />
<rect x="94" y="30" width="1" height="1" fill="#696A6A" />
<rect x="95" y="30" width="1" height="1" fill="#696A6A" />
<rect x="96" y="30" width="1" height="1" fill="#696A6A" />
<rect x="97" y="30" width="1" height="1" fill="#696A6A" />
<rect x="98" y="30" width="1" height="1" fill="#696A6A" />
<rect x="99" y="30" width="1" height="1" fill="#696A6A" />
<rect x="100" y="30" width="1" height="1" fill="#696A6A" />
<rect x="101" y="30" width="1" height="1" fill="#595652" />
<rect x="102" y="30" width="1" height="1" fill="#595652" />
<rect x="103" y="30" width="1" height="1" fill="#595652" />
<rect x="104" y="30" width="1" height="1" fill="#595652" />
<rect x="30" y="31" width="1" height="1" fill="#595652" />
<rect x="31" y="31" width="1" height="1" fill="#595652" />
<rect x="32" y="31" width="1" height="1" fill="#696A6A" />
<rect x="33" y="31" width="1" height="1" fill="#696A6A" />
<rect x="34" y="31" width="1" height="1" fill="#696A6A" />
<rect x="35" y="31" width="1" height="1" fill="#595652" />
<rect x="36" y="31" width="1" height="1" fill="#696A6A" />
<rect x="37" y="31" width="1" height="1" fill="#696A6A" />
<rect x="38" y="31" width="1" height="1" fill="#595652" />
<rect x="39" y="31" width="1" height="1" fill="#595652" />
<rect x="40" y="31" width="1" height="1" fill="#595652" />
<rect x="41" y="31" width="1" height="1" fill="#696A6A" />
<rect x="42" y="31" width="1" height="1" fill="#696A6A" />
<rect x="43" y="31" width="1" height="1" fill="#696A6A" />
<rect x="44" y="31" width="1" height="1" fill="#696A6A" />
<rect x="45" y="31" width="1" height="1" fill="#696A6A" />
<rect x="46" y="31" width="1" height="1" fill="#595652" />
<rect x="47" y="31" width="1" height="1" fill="#595652" />
<rect x="48" y="31" width="1" height="1" fill="#847E87" />
<rect x="49" y="31" width="1" height="1" fill="#847E87" />
<rect x="50" y="31" width="1" height="1" fill="#847E87" />
<rect x="51" y="31" width="1" height="1" fill="#CBDBFC" />
<rect x="52" y="31" width="1" height="1" fill="#CBDBFC" />
<rect x="53" y="31" width="1" height="1" fill="#CBDBFC" />
<rect x="54" y="31" width="1" height="1" fill="#CBDBFC" />
<rect x="55" y="31" width="1" height="1" fill="#CBDBFC" />
<rect x="56" y="31" width="1" height="1" fill="#CBDBFC" />
<rect x="57" y="31" width="1" height="1" fill="#CBDBFC" />
<rect x="58" y="31" width="1" height="1" fill="#CBDBFC" />
<rect x="59" y="31" width="1" height="1" fill="#CBDBFC" />
<rect x="60" y="31" width="1" height="1" fill="#CBDBFC" />
<rect x="61" y="31" width="1" height="1" fill="#CBDBFC" />
<rect x="62" y="31" width="1" height="1" fill="#CBDBFC" />
<rect x="63" y="31" width="1" height="1" fill="#CBDBFC" />
<rect x="64" y="31" width="1" height="1" fill="#CBDBFC" />
<rect x="65" y="31" width="1" height="1" fill="#CBDBFC" />
<rect x="66" y="31" width="1" height="1" fill="#CBDBFC" />
<rect x="67" y="31" width="1" height="1" fill="#847E87" />
<rect x="68" y="31" width="1" height="1" fill="#CBDBFC" />
<rect x="69" y="31" width="1" height="1" fill="#847E87" />
<rect x="70" y="31" width="1" height="1" fill="#847E87" />
<rect x="71" y="31" width="1" height="1" fill="#847E87" />
<rect x="72" y="31" width="1" height="1" fill="#595652" />
<rect x="73" y="31" width="1" height="1" fill="#595652" />
<rect x="74" y="31" width="1" height="1" fill="#595652" />
<rect x="75" y="31" width="1" height="1" fill="#696A6A" />
<rect x="76" y="31" width="1" height="1" fill="#696A6A" />
<rect x="77" y="31" width="1" height="1" fill="#595652" />
<rect x="78" y="31" width="1" height="1" fill="#696A6A" />
<rect x="79" y="31" width="1" height="1" fill="#696A6A" />
<rect x="80" y="31" width="1" height="1" fill="#696A6A" />
<rect x="81" y="31" width="1" height="1" fill="#696A6A" />
<rect x="82" y="31" width="1" height="1" fill="#696A6A" />
<rect x="83" y="31" width="1" height="1" fill="#696A6A" />
<rect x="84" y="31" width="1" height="1" fill="#696A6A" />
<rect x="85" y="31" width="1" height="1" fill="#696A6A" />
<rect x="86" y="31" width="1" height="1" fill="#696A6A" />
<rect x="87" y="31" width="1" height="1" fill="#696A6A" />
<rect x="88" y="31" width="1" height="1" fill="#696A6A" />
<rect x="89" y="31" width="1" height="1" fill="#696A6A" />
<rect x="90" y="31" width="1" height="1" fill="#696A6A" />
<rect x="91" y="31" width="1" height="1" fill="#696A6A" />
<rect x="92" y="31" width="1" height="1" fill="#696A6A" />
<rect x="93" y="31" width="1" height="1" fill="#696A6A" />
<rect x="94" y="31" width="1" height="1" fill="#696A6A" />
<rect x="95" y="31" width="1" height="1" fill="#595652" />
<rect x="96" y="31" width="1" height="1" fill="#595652" />
<rect x="97" y="31" width="1" height="1" fill="#595652" />
<rect x="98" y="31" width="1" height="1" fill="#595652" />
<rect x="99" y="31" width="1" height="1" fill="#595652" />
<rect x="100" y="31" width="1" height="1" fill="#595652" />
<rect x="30" y="32" width="1" height="1" fill="#595652" />
<rect x="31" y="32" width="1" height="1" fill="#696A6A" />
<rect x="32" y="32" width="1" height="1" fill="#696A6A" />
<rect x="33" y="32" width="1" height="1" fill="#847E87" />
<rect x="34" y="32" width="1" height="1" fill="#595652" />
<rect x="35" y="32" width="1" height="1" fill="#696A6A" />
<rect x="36" y="32" width="1" height="1" fill="#696A6A" />
<rect x="37" y="32" width="1" height="1" fill="#595652" />
<rect x="38" y="32" width="1" height="1" fill="#FFFFFF" />
<rect x="39" y="32" width="1" height="1" fill="#000000" />
<rect x="40" y="32" width="1" height="1" fill="#000000" />
<rect x="41" y="32" width="1" height="1" fill="#595652" />
<rect x="42" y="32" width="1" height="1" fill="#696A6A" />
<rect x="43" y="32" width="1" height="1" fill="#696A6A" />
<rect x="44" y="32" width="1" height="1" fill="#696A6A" />
<rect x="45" y="32" width="1" height="1" fill="#696A6A" />
<rect x="46" y="32" width="1" height="1" fill="#595652" />
<rect x="47" y="32" width="1" height="1" fill="#847E87" />
<rect x="48" y="32" width="1" height="1" fill="#847E87" />
<rect x="49" y="32" width="1" height="1" fill="#CBDBFC" />
<rect x="50" y="32" width="1" height="1" fill="#847E87" />
<rect x="51" y="32" width="1" height="1" fill="#CBDBFC" />
<rect x="52" y="32" width="1" height="1" fill="#CBDBFC" />
<rect x="53" y="32" width="1" height="1" fill="#CBDBFC" />
<rect x="54" y="32" width="1" height="1" fill="#CBDBFC" />
<rect x="55" y="32" width="1" height="1" fill="#CBDBFC" />
<rect x="56" y="32" width="1" height="1" fill="#CBDBFC" />
<rect x="57" y="32" width="1" height="1" fill="#CBDBFC" />
<rect x="58" y="32" width="1" height="1" fill="#CBDBFC" />
<rect x="59" y="32" width="1" height="1" fill="#CBDBFC" />
<rect x="60" y="32" width="1" height="1" fill="#CBDBFC" />
<rect x="61" y="32" width="1" height="1" fill="#CBDBFC" />
<rect x="62" y="32" width="1" height="1" fill="#CBDBFC" />
<rect x="63" y="32" width="1" height="1" fill="#CBDBFC" />
<rect x="64" y="32" width="1" height="1" fill="#CBDBFC" />
<rect x="65" y="32" width="1" height="1" fill="#CBDBFC" />
<rect x="66" y="32" width="1" height="1" fill="#CBDBFC" />
<rect x="67" y="32" width="1" height="1" fill="#CBDBFC" />
<rect x="68" y="32" width="1" height="1" fill="#847E87" />
<rect x="69" y="32" width="1" height="1" fill="#847E87" />
<rect x="70" y="32" width="1" height="1" fill="#CBDBFC" />
<rect x="71" y="32" width="1" height="1" fill="#847E87" />
<rect x="72" y="32" width="1" height="1" fill="#847E87" />
<rect x="73" y="32" width="1" height="1" fill="#847E87" />
<rect x="74" y="32" width="1" height="1" fill="#595652" />
<rect x="75" y="32" width="1" height="1" fill="#595652" />
<rect x="76" y="32" width="1" height="1" fill="#847E87" />
<rect x="77" y="32" width="1" height="1" fill="#696A6A" />
<rect x="78" y="32" width="1" height="1" fill="#595652" />
<rect x="79" y="32" width="1" height="1" fill="#696A6A" />
<rect x="80" y="32" width="1" height="1" fill="#696A6A" />
<rect x="81" y="32" width="1" height="1" fill="#696A6A" />
<rect x="82" y="32" width="1" height="1" fill="#696A6A" />
<rect x="83" y="32" width="1" height="1" fill="#595652" />
<rect x="84" y="32" width="1" height="1" fill="#595652" />
<rect x="85" y="32" width="1" height="1" fill="#595652" />
<rect x="86" y="32" width="1" height="1" fill="#595652" />
<rect x="87" y="32" width="1" height="1" fill="#595652" />
<rect x="88" y="32" width="1" height="1" fill="#595652" />
<rect x="89" y="32" width="1" height="1" fill="#595652" />
<rect x="90" y="32" width="1" height="1" fill="#595652" />
<rect x="91" y="32" width="1" height="1" fill="#595652" />
<rect x="92" y="32" width="1" height="1" fill="#595652" />
<rect x="93" y="32" width="1" height="1" fill="#595652" />
<rect x="94" y="32" width="1" height="1" fill="#595652" />
<rect x="29" y="33" width="1" height="1" fill="#595652" />
<rect x="30" y="33" width="1" height="1" fill="#696A6A" />
<rect x="31" y="33" width="1" height="1" fill="#696A6A" />
<rect x="32" y="33" width="1" height="1" fill="#696A6A" />
<rect x="33" y="33" width="1" height="1" fill="#696A6A" />
<rect x="34" y="33" width="1" height="1" fill="#595652" />
<rect x="35" y="33" width="1" height="1" fill="#696A6A" />
<rect x="36" y="33" width="1" height="1" fill="#696A6A" />
<rect x="37" y="33" width="1" height="1" fill="#595652" />
<rect x="38" y="33" width="1" height="1" fill="#000000" />
<rect x="39" y="33" width="1" height="1" fill="#000000" />
<rect x="40" y="33" width="1" height="1" fill="#000000" />
<rect x="41" y="33" width="1" height="1" fill="#595652" />
<rect x="42" y="33" width="1" height="1" fill="#696A6A" />
<rect x="43" y="33" width="1" height="1" fill="#847E87" />
<rect x="44" y="33" width="1" height="1" fill="#696A6A" />
<rect x="45" y="33" width="1" height="1" fill="#595652" />
<rect x="46" y="33" width="1" height="1" fill="#595652" />
<rect x="47" y="33" width="1" height="1" fill="#847E87" />
<rect x="48" y="33" width="1" height="1" fill="#CBDBFC" />
<rect x="49" y="33" width="1" height="1" fill="#847E87" />
<rect x="50" y="33" width="1" height="1" fill="#CBDBFC" />
<rect x="51" y="33" width="1" height="1" fill="#CBDBFC" />
<rect x="52" y="33" width="1" height="1" fill="#CBDBFC" />
<rect x="53" y="33" width="1" height="1" fill="#CBDBFC" />
<rect x="54" y="33" width="1" height="1" fill="#CBDBFC" />
<rect x="55" y="33" width="1" height="1" fill="#CBDBFC" />
<rect x="56" y="33" width="1" height="1" fill="#CBDBFC" />
<rect x="57" y="33" width="1" height="1" fill="#CBDBFC" />
<rect x="58" y="33" width="1" height="1" fill="#CBDBFC" />
<rect x="59" y="33" width="1" height="1" fill="#CBDBFC" />
<rect x="60" y="33" width="1" height="1" fill="#CBDBFC" />
<rect x="61" y="33" width="1" height="1" fill="#CBDBFC" />
<rect x="62" y="33" width="1" height="1" fill="#CBDBFC" />
<rect x="63" y="33" width="1" height="1" fill="#CBDBFC" />
<rect x="64" y="33" width="1" height="1" fill="#CBDBFC" />
<rect x="65" y="33" width="1" height="1" fill="#CBDBFC" />
<rect x="66" y="33" width="1" height="1" fill="#CBDBFC" />
<rect x="67" y="33" width="1" height="1" fill="#CBDBFC" />
<rect x="68" y="33" width="1" height="1" fill="#CBDBFC" />
<rect x="69" y="33" width="1" height="1" fill="#CBDBFC" />
<rect x="70" y="33" width="1" height="1" fill="#847E87" />
<rect x="71" y="33" width="1" height="1" fill="#847E87" />
<rect x="72" y="33" width="1" height="1" fill="#CBDBFC" />
<rect x="73" y="33" width="1" height="1" fill="#847E87" />
<rect x="74" y="33" width="1" height="1" fill="#847E87" />
<rect x="75" y="33" width="1" height="1" fill="#595652" />
<rect x="76" y="33" width="1" height="1" fill="#595652" />
<rect x="77" y="33" width="1" height="1" fill="#595652" />
<rect x="78" y="33" width="1" height="1" fill="#595652" />
<rect x="79" y="33" width="1" height="1" fill="#595652" />
<rect x="80" y="33" width="1" height="1" fill="#595652" />
<rect x="81" y="33" width="1" height="1" fill="#595652" />
<rect x="82" y="33" width="1" height="1" fill="#595652" />
<rect x="28" y="34" width="1" height="1" fill="#595652" />
<rect x="29" y="34" width="1" height="1" fill="#696A6A" />
<rect x="30" y="34" width="1" height="1" fill="#696A6A" />
<rect x="31" y="34" width="1" height="1" fill="#696A6A" />
<rect x="32" y="34" width="1" height="1" fill="#696A6A" />
<rect x="33" y="34" width="1" height="1" fill="#595652" />
<rect x="34" y="34" width="1" height="1" fill="#696A6A" />
<rect x="35" y="34" width="1" height="1" fill="#696A6A" />
<rect x="36" y="34" width="1" height="1" fill="#696A6A" />
<rect x="37" y="34" width="1" height="1" fill="#696A6A" />
<rect x="38" y="34" width="1" height="1" fill="#595652" />
<rect x="39" y="34" width="1" height="1" fill="#595652" />
<rect x="40" y="34" width="1" height="1" fill="#595652" />
<rect x="41" y="34" width="1" height="1" fill="#696A6A" />
<rect x="42" y="34" width="1" height="1" fill="#696A6A" />
<rect x="43" y="34" width="1" height="1" fill="#696A6A" />
<rect x="44" y="34" width="1" height="1" fill="#595652" />
<rect x="45" y="34" width="1" height="1" fill="#595652" />
<rect x="46" y="34" width="1" height="1" fill="#847E87" />
<rect x="47" y="34" width="1" height="1" fill="#847E87" />
<rect x="48" y="34" width="1" height="1" fill="#847E87" />
<rect x="49" y="34" width="1" height="1" fill="#CBDBFC" />
<rect x="50" y="34" width="1" height="1" fill="#CBDBFC" />
<rect x="51" y="34" width="1" height="1" fill="#CBDBFC" />
<rect x="52" y="34" width="1" height="1" fill="#CBDBFC" />
<rect x="53" y="34" width="1" height="1" fill="#CBDBFC" />
<rect x="54" y="34" width="1" height="1" fill="#CBDBFC" />
<rect x="55" y="34" width="1" height="1" fill="#CBDBFC" />
<rect x="56" y="34" width="1" height="1" fill="#CBDBFC" />
<rect x="57" y="34" width="1" height="1" fill="#CBDBFC" />
<rect x="58" y="34" width="1" height="1" fill="#CBDBFC" />
<rect x="59" y="34" width="1" height="1" fill="#CBDBFC" />
<rect x="60" y="34" width="1" height="1" fill="#CBDBFC" />
<rect x="61" y="34" width="1" height="1" fill="#CBDBFC" />
<rect x="62" y="34" width="1" height="1" fill="#CBDBFC" />
<rect x="63" y="34" width="1" height="1" fill="#CBDBFC" />
<rect x="64" y="34" width="1" height="1" fill="#CBDBFC" />
<rect x="65" y="34" width="1" height="1" fill="#CBDBFC" />
<rect x="66" y="34" width="1" height="1" fill="#CBDBFC" />
<rect x="67" y="34" width="1" height="1" fill="#CBDBFC" />
<rect x="68" y="34" width="1" height="1" fill="#CBDBFC" />
<rect x="69" y="34" width="1" height="1" fill="#CBDBFC" />
<rect x="70" y="34" width="1" height="1" fill="#CBDBFC" />
<rect x="71" y="34" width="1" height="1" fill="#CBDBFC" />
<rect x="72" y="34" width="1" height="1" fill="#847E87" />
<rect x="73" y="34" width="1" height="1" fill="#CBDBFC" />
<rect x="74" y="34" width="1" height="1" fill="#847E87" />
<rect x="75" y="34" width="1" height="1" fill="#847E87" />
<rect x="76" y="34" width="1" height="1" fill="#595652" />
<rect x="27" y="35" width="1" height="1" fill="#595652" />
<rect x="28" y="35" width="1" height="1" fill="#696A6A" />
<rect x="29" y="35" width="1" height="1" fill="#696A6A" />
<rect x="30" y="35" width="1" height="1" fill="#696A6A" />
<rect x="31" y="35" width="1" height="1" fill="#696A6A" />
<rect x="32" y="35" width="1" height="1" fill="#595652" />
<rect x="33" y="35" width="1" height="1" fill="#696A6A" />
<rect x="34" y="35" width="1" height="1" fill="#696A6A" />
<rect x="35" y="35" width="1" height="1" fill="#847E87" />
<rect x="36" y="35" width="1" height="1" fill="#696A6A" />
<rect x="37" y="35" width="1" height="1" fill="#696A6A" />
<rect x="38" y="35" width="1" height="1" fill="#696A6A" />
<rect x="39" y="35" width="1" height="1" fill="#696A6A" />
<rect x="40" y="35" width="1" height="1" fill="#696A6A" />
<rect x="41" y="35" width="1" height="1" fill="#696A6A" />
<rect x="42" y="35" width="1" height="1" fill="#696A6A" />
<rect x="43" y="35" width="1" height="1" fill="#595652" />
<rect x="44" y="35" width="1" height="1" fill="#595652" />
<rect x="45" y="35" width="1" height="1" fill="#847E87" />
<rect x="46" y="35" width="1" height="1" fill="#847E87" />
<rect x="47" y="35" width="1" height="1" fill="#CBDBFC" />
<rect x="48" y="35" width="1" height="1" fill="#CBDBFC" />
<rect x="49" y="35" width="1" height="1" fill="#CBDBFC" />
<rect x="50" y="35" width="1" height="1" fill="#CBDBFC" />
<rect x="51" y="35" width="1" height="1" fill="#CBDBFC" />
<rect x="52" y="35" width="1" height="1" fill="#CBDBFC" />
<rect x="53" y="35" width="1" height="1" fill="#CBDBFC" />
<rect x="54" y="35" width="1" height="1" fill="#CBDBFC" />
<rect x="55" y="35" width="1" height="1" fill="#CBDBFC" />
<rect x="56" y="35" width="1" height="1" fill="#CBDBFC" />
<rect x="57" y="35" width="1" height="1" fill="#CBDBFC" />
<rect x="58" y="35" width="1" height="1" fill="#CBDBFC" />
<rect x="59" y="35" width="1" height="1" fill="#CBDBFC" />
<rect x="60" y="35" width="1" height="1" fill="#CBDBFC" />
<rect x="61" y="35" width="1" height="1" fill="#CBDBFC" />
<rect x="62" y="35" width="1" height="1" fill="#CBDBFC" />
<rect x="63" y="35" width="1" height="1" fill="#CBDBFC" />
<rect x="64" y="35" width="1" height="1" fill="#CBDBFC" />
<rect x="65" y="35" width="1" height="1" fill="#CBDBFC" />
<rect x="66" y="35" width="1" height="1" fill="#CBDBFC" />
<rect x="67" y="35" width="1" height="1" fill="#CBDBFC" />
<rect x="68" y="35" width="1" height="1" fill="#CBDBFC" />
<rect x="69" y="35" width="1" height="1" fill="#CBDBFC" />
<rect x="70" y="35" width="1" height="1" fill="#CBDBFC" />
<rect x="71" y="35" width="1" height="1" fill="#CBDBFC" />
<rect x="72" y="35" width="1" height="1" fill="#CBDBFC" />
<rect x="73" y="35" width="1" height="1" fill="#847E87" />
<rect x="74" y="35" width="1" height="1" fill="#CBDBFC" />
<rect x="75" y="35" width="1" height="1" fill="#847E87" />
<rect x="76" y="35" width="1" height="1" fill="#595652" />
<rect x="77" y="35" width="1" height="1" fill="#595652" />
<rect x="28" y="36" width="1" height="1" fill="#595652" />
<rect x="29" y="36" width="1" height="1" fill="#696A6A" />
<rect x="30" y="36" width="1" height="1" fill="#847E87" />
<rect x="31" y="36" width="1" height="1" fill="#696A6A" />
<rect x="32" y="36" width="1" height="1" fill="#696A6A" />
<rect x="33" y="36" width="1" height="1" fill="#696A6A" />
<rect x="34" y="36" width="1" height="1" fill="#696A6A" />
<rect x="35" y="36" width="1" height="1" fill="#696A6A" />
<rect x="36" y="36" width="1" height="1" fill="#696A6A" />
<rect x="37" y="36" width="1" height="1" fill="#847E87" />
<rect x="38" y="36" width="1" height="1" fill="#696A6A" />
<rect x="39" y="36" width="1" height="1" fill="#696A6A" />
<rect x="40" y="36" width="1" height="1" fill="#696A6A" />
<rect x="41" y="36" width="1" height="1" fill="#595652" />
<rect x="42" y="36" width="1" height="1" fill="#595652" />
<rect x="43" y="36" width="1" height="1" fill="#595652" />
<rect x="44" y="36" width="1" height="1" fill="#847E87" />
<rect x="45" y="36" width="1" height="1" fill="#847E87" />
<rect x="46" y="36" width="1" height="1" fill="#CBDBFC" />
<rect x="47" y="36" width="1" height="1" fill="#847E87" />
<rect x="48" y="36" width="1" height="1" fill="#CBDBFC" />
<rect x="49" y="36" width="1" height="1" fill="#CBDBFC" />
<rect x="50" y="36" width="1" height="1" fill="#CBDBFC" />
<rect x="51" y="36" width="1" height="1" fill="#CBDBFC" />
<rect x="52" y="36" width="1" height="1" fill="#CBDBFC" />
<rect x="53" y="36" width="1" height="1" fill="#CBDBFC" />
<rect x="54" y="36" width="1" height="1" fill="#CBDBFC" />
<rect x="55" y="36" width="1" height="1" fill="#CBDBFC" />
<rect x="56" y="36" width="1" height="1" fill="#CBDBFC" />
<rect x="57" y="36" width="1" height="1" fill="#CBDBFC" />
<rect x="58" y="36" width="1" height="1" fill="#CBDBFC" />
<rect x="59" y="36" width="1" height="1" fill="#CBDBFC" />
<rect x="60" y="36" width="1" height="1" fill="#CBDBFC" />
<rect x="61" y="36" width="1" height="1" fill="#CBDBFC" />
<rect x="62" y="36" width="1" height="1" fill="#CBDBFC" />
<rect x="63" y="36" width="1" height="1" fill="#CBDBFC" />
<rect x="64" y="36" width="1" height="1" fill="#CBDBFC" />
<rect x="65" y="36" width="1" height="1" fill="#CBDBFC" />
<rect x="66" y="36" width="1" height="1" fill="#CBDBFC" />
<rect x="67" y="36" width="1" height="1" fill="#CBDBFC" />
<rect x="68" y="36" width="1" height="1" fill="#CBDBFC" />
<rect x="69" y="36" width="1" height="1" fill="#CBDBFC" />
<rect x="70" y="36" width="1" height="1" fill="#CBDBFC" />
<rect x="71" y="36" width="1" height="1" fill="#CBDBFC" />
<rect x="72" y="36" width="1" height="1" fill="#CBDBFC" />
<rect x="73" y="36" width="1" height="1" fill="#CBDBFC" />
<rect x="74" y="36" width="1" height="1" fill="#847E87" />
<rect x="75" y="36" width="1" height="1" fill="#847E87" />
<rect x="76" y="36" width="1" height="1" fill="#847E87" />
<rect x="77" y="36" width="1" height="1" fill="#595652" />
<rect x="78" y="36" width="1" height="1" fill="#595652" />
<rect x="29" y="37" width="1" height="1" fill="#595652" />
<rect x="30" y="37" width="1" height="1" fill="#696A6A" />
<rect x="31" y="37" width="1" height="1" fill="#696A6A" />
<rect x="32" y="37" width="1" height="1" fill="#847E87" />
<rect x="33" y="37" width="1" height="1" fill="#696A6A" />
<rect x="34" y="37" width="1" height="1" fill="#696A6A" />
<rect x="35" y="37" width="1" height="1" fill="#847E87" />
<rect x="36" y="37" width="1" height="1" fill="#696A6A" />
<rect x="37" y="37" width="1" height="1" fill="#696A6A" />
<rect x="38" y="37" width="1" height="1" fill="#696A6A" />
<rect x="39" y="37" width="1" height="1" fill="#696A6A" />
<rect x="40" y="37" width="1" height="1" fill="#595652" />
<rect x="41" y="37" width="1" height="1" fill="#595652" />
<rect x="42" y="37" width="1" height="1" fill="#847E87" />
<rect x="43" y="37" width="1" height="1" fill="#847E87" />
<rect x="44" y="37" width="1" height="1" fill="#847E87" />
<rect x="45" y="37" width="1" height="1" fill="#CBDBFC" />
<rect x="46" y="37" width="1" height="1" fill="#847E87" />
<rect x="47" y="37" width="1" height="1" fill="#CBDBFC" />
<rect x="48" y="37" width="1" height="1" fill="#595652" />
<rect x="49" y="37" width="1" height="1" fill="#595652" />
<rect x="50" y="37" width="1" height="1" fill="#595652" />
<rect x="51" y="37" width="1" height="1" fill="#595652" />
<rect x="52" y="37" width="1" height="1" fill="#595652" />
<rect x="53" y="37" width="1" height="1" fill="#595652" />
<rect x="54" y="37" width="1" height="1" fill="#595652" />
<rect x="55" y="37" width="1" height="1" fill="#595652" />
<rect x="56" y="37" width="1" height="1" fill="#595652" />
<rect x="57" y="37" width="1" height="1" fill="#595652" />
<rect x="58" y="37" width="1" height="1" fill="#595652" />
<rect x="59" y="37" width="1" height="1" fill="#595652" />
<rect x="60" y="37" width="1" height="1" fill="#595652" />
<rect x="61" y="37" width="1" height="1" fill="#595652" />
<rect x="62" y="37" width="1" height="1" fill="#595652" />
<rect x="63" y="37" width="1" height="1" fill="#595652" />
<rect x="64" y="37" width="1" height="1" fill="#595652" />
<rect x="65" y="37" width="1" height="1" fill="#595652" />
<rect x="66" y="37" width="1" height="1" fill="#595652" />
<rect x="67" y="37" width="1" height="1" fill="#595652" />
<rect x="68" y="37" width="1" height="1" fill="#595652" />
<rect x="69" y="37" width="1" height="1" fill="#595652" />
<rect x="70" y="37" width="1" height="1" fill="#595652" />
<rect x="71" y="37" width="1" height="1" fill="#595652" />
<rect x="72" y="37" width="1" height="1" fill="#595652" />
<rect x="73" y="37" width="1" height="1" fill="#CBDBFC" />
<rect x="74" y="37" width="1" height="1" fill="#CBDBFC" />
<rect x="75" y="37" width="1" height="1" fill="#CBDBFC" />
<rect x="76" y="37" width="1" height="1" fill="#847E87" />
<rect x="77" y="37" width="1" height="1" fill="#847E87" />
<rect x="78" y="37" width="1" height="1" fill="#595652" />
<rect x="30" y="38" width="1" height="1" fill="#595652" />
<rect x="31" y="38" width="1" height="1" fill="#696A6A" />
<rect x="32" y="38" width="1" height="1" fill="#696A6A" />
<rect x="33" y="38" width="1" height="1" fill="#696A6A" />
<rect x="34" y="38" width="1" height="1" fill="#696A6A" />
<rect x="35" y="38" width="1" height="1" fill="#696A6A" />
<rect x="36" y="38" width="1" height="1" fill="#696A6A" />
<rect x="37" y="38" width="1" height="1" fill="#696A6A" />
<rect x="38" y="38" width="1" height="1" fill="#696A6A" />
<rect x="39" y="38" width="1" height="1" fill="#696A6A" />
<rect x="40" y="38" width="1" height="1" fill="#595652" />
<rect x="41" y="38" width="1" height="1" fill="#847E87" />
<rect x="42" y="38" width="1" height="1" fill="#847E87" />
<rect x="43" y="38" width="1" height="1" fill="#595652" />
<rect x="44" y="38" width="1" height="1" fill="#595652" />
<rect x="45" y="38" width="1" height="1" fill="#595652" />
<rect x="46" y="38" width="1" height="1" fill="#595652" />
<rect x="47" y="38" width="1" height="1" fill="#595652" />
<rect x="73" y="38" width="1" height="1" fill="#595652" />
<rect x="74" y="38" width="1" height="1" fill="#595652" />
<rect x="75" y="38" width="1" height="1" fill="#595652" />
<rect x="76" y="38" width="1" height="1" fill="#595652" />
<rect x="77" y="38" width="1" height="1" fill="#595652" />
<rect x="78" y="38" width="1" height="1" fill="#595652" />
<rect x="31" y="39" width="1" height="1" fill="#595652" />
<rect x="32" y="39" width="1" height="1" fill="#595652" />
<rect x="33" y="39" width="1" height="1" fill="#696A6A" />
<rect x="34" y="39" width="1" height="1" fill="#696A6A" />
<rect x="35" y="39" width="1" height="1" fill="#696A6A" />
<rect x="36" y="39" width="1" height="1" fill="#696A6A" />
<rect x="37" y="39" width="1" height="1" fill="#595652" />
<rect x="38" y="39" width="1" height="1" fill="#595652" />
<rect x="39" y="39" width="1" height="1" fill="#595652" />
<rect x="40" y="39" width="1" height="1" fill="#595652" />
<rect x="41" y="39" width="1" height="1" fill="#595652" />
<rect x="42" y="39" width="1" height="1" fill="#595652" />
<rect x="33" y="40" width="1" height="1" fill="#595652" />
<rect x="34" y="40" width="1" height="1" fill="#595652" />
<rect x="35" y="40" width="1" height="1" fill="#595652" />
<rect x="36" y="40" width="1" height="1" fill="#595652" />
</svg>